<mxfile host="app.diagrams.net" modified="2022-03-13T19:39:23.326Z" agent="5.0 (X11)" etag="OrY8CkL_chBa8hHxTaI3" version="17.1.2" type="github" pages="4">
  <diagram id="3hMR1kG2Y_cvBGAczelS" name="Page-1">
    <mxGraphModel dx="2197" dy="1463" grid="1" gridSize="10" guides="1" tooltips="1" connect="1" arrows="1" fold="1" page="1" pageScale="1" pageWidth="1600" pageHeight="900" math="0" shadow="0">
      <root>
        <mxCell id="0" />
        <mxCell id="1" parent="0" />
        <mxCell id="z6NroQp7eWn7uBLg_rGb-3" value="" style="edgeStyle=orthogonalEdgeStyle;rounded=0;orthogonalLoop=1;jettySize=auto;html=1;fontFamily=Verdana;fontSize=16;" parent="1" source="z6NroQp7eWn7uBLg_rGb-1" edge="1">
          <mxGeometry relative="1" as="geometry">
            <mxPoint x="240" y="420" as="targetPoint" />
          </mxGeometry>
        </mxCell>
        <mxCell id="z6NroQp7eWn7uBLg_rGb-5" style="edgeStyle=orthogonalEdgeStyle;rounded=0;orthogonalLoop=1;jettySize=auto;html=1;exitX=0;exitY=0;exitDx=0;exitDy=0;fontFamily=Helvetica;fontSize=18;entryX=1;entryY=0.5;entryDx=0;entryDy=0;" parent="1" source="z6NroQp7eWn7uBLg_rGb-1" target="z6NroQp7eWn7uBLg_rGb-6" edge="1">
          <mxGeometry relative="1" as="geometry">
            <mxPoint x="240" y="280" as="targetPoint" />
            <Array as="points">
              <mxPoint x="320" y="340" />
              <mxPoint x="230" y="340" />
            </Array>
          </mxGeometry>
        </mxCell>
        <mxCell id="z6NroQp7eWn7uBLg_rGb-7" style="edgeStyle=orthogonalEdgeStyle;rounded=0;orthogonalLoop=1;jettySize=auto;html=1;exitX=0.5;exitY=0;exitDx=0;exitDy=0;fontFamily=Helvetica;fontSize=18;" parent="1" source="z6NroQp7eWn7uBLg_rGb-1" edge="1">
          <mxGeometry relative="1" as="geometry">
            <mxPoint x="420" y="290" as="targetPoint" />
          </mxGeometry>
        </mxCell>
        <mxCell id="z6NroQp7eWn7uBLg_rGb-12" style="edgeStyle=orthogonalEdgeStyle;rounded=0;orthogonalLoop=1;jettySize=auto;html=1;exitX=1;exitY=0.5;exitDx=0;exitDy=0;fontFamily=Helvetica;fontSize=18;" parent="1" source="z6NroQp7eWn7uBLg_rGb-1" target="z6NroQp7eWn7uBLg_rGb-13" edge="1">
          <mxGeometry relative="1" as="geometry">
            <mxPoint x="720" y="420" as="targetPoint" />
          </mxGeometry>
        </mxCell>
        <mxCell id="z6NroQp7eWn7uBLg_rGb-14" style="edgeStyle=orthogonalEdgeStyle;rounded=0;orthogonalLoop=1;jettySize=auto;html=1;exitX=1;exitY=0.75;exitDx=0;exitDy=0;fontFamily=Helvetica;fontSize=18;" parent="1" source="z6NroQp7eWn7uBLg_rGb-1" target="z6NroQp7eWn7uBLg_rGb-15" edge="1">
          <mxGeometry relative="1" as="geometry">
            <mxPoint x="420" y="560" as="targetPoint" />
          </mxGeometry>
        </mxCell>
        <mxCell id="z6NroQp7eWn7uBLg_rGb-35" style="edgeStyle=orthogonalEdgeStyle;rounded=0;orthogonalLoop=1;jettySize=auto;html=1;exitX=0.5;exitY=1;exitDx=0;exitDy=0;entryX=0;entryY=0.5;entryDx=0;entryDy=0;fontFamily=Helvetica;fontSize=22;shape=link;" parent="1" source="z6NroQp7eWn7uBLg_rGb-1" target="z6NroQp7eWn7uBLg_rGb-34" edge="1">
          <mxGeometry relative="1" as="geometry" />
        </mxCell>
        <mxCell id="cXiG-wbBNprc3cpvyRiR-5" style="edgeStyle=orthogonalEdgeStyle;rounded=0;orthogonalLoop=1;jettySize=auto;html=1;exitX=0.75;exitY=0;exitDx=0;exitDy=0;entryX=0.5;entryY=1;entryDx=0;entryDy=0;fontFamily=Helvetica;fontSize=16;" parent="1" source="z6NroQp7eWn7uBLg_rGb-1" target="z6NroQp7eWn7uBLg_rGb-11" edge="1">
          <mxGeometry relative="1" as="geometry" />
        </mxCell>
        <mxCell id="cXiG-wbBNprc3cpvyRiR-6" style="edgeStyle=orthogonalEdgeStyle;rounded=0;orthogonalLoop=1;jettySize=auto;html=1;exitX=0.25;exitY=0;exitDx=0;exitDy=0;entryX=0.5;entryY=1;entryDx=0;entryDy=0;fontFamily=Helvetica;fontSize=16;" parent="1" source="z6NroQp7eWn7uBLg_rGb-1" target="cXiG-wbBNprc3cpvyRiR-1" edge="1">
          <mxGeometry relative="1" as="geometry" />
        </mxCell>
        <mxCell id="z6NroQp7eWn7uBLg_rGb-1" value="&lt;h3 style=&quot;font-size: 18px&quot;&gt;&lt;font style=&quot;font-size: 18px&quot; face=&quot;Verdana&quot;&gt;COMUNIDAD&lt;/font&gt;&lt;br&gt;&lt;/h3&gt;" style="rounded=0;whiteSpace=wrap;html=1;fillColor=#d5e8d4;strokeColor=#82b366;gradientColor=#97d077;" parent="1" vertex="1">
          <mxGeometry x="320" y="360" width="200" height="120" as="geometry" />
        </mxCell>
        <mxCell id="z6NroQp7eWn7uBLg_rGb-4" value="id" style="ellipse;whiteSpace=wrap;fontFamily=Helvetica;fontSize=16;fontStyle=1;fillColor=#dae8fc;strokeColor=#6c8ebf;" parent="1" vertex="1">
          <mxGeometry x="110" y="380" width="120" height="80" as="geometry" />
        </mxCell>
        <mxCell id="z6NroQp7eWn7uBLg_rGb-6" value="&lt;b&gt;Nombre&lt;/b&gt;" style="ellipse;whiteSpace=wrap;html=1;fontFamily=Helvetica;fontSize=18;" parent="1" vertex="1">
          <mxGeometry x="110" y="270" width="120" height="80" as="geometry" />
        </mxCell>
        <mxCell id="z6NroQp7eWn7uBLg_rGb-9" value="&lt;b&gt;Tipo de comunidad&lt;/b&gt;" style="ellipse;whiteSpace=wrap;html=1;fontFamily=Helvetica;fontSize=18;fillColor=#fff2cc;strokeColor=#d6b656;gradientColor=#ffd966;" parent="1" vertex="1">
          <mxGeometry x="360" y="200" width="120" height="80" as="geometry" />
        </mxCell>
        <mxCell id="z6NroQp7eWn7uBLg_rGb-11" value="&lt;b&gt;UbicaciÃ³n&lt;/b&gt;" style="ellipse;whiteSpace=wrap;html=1;fontFamily=Helvetica;fontSize=18;fillColor=#fff2cc;gradientColor=#ffd966;strokeColor=#d6b656;" parent="1" vertex="1">
          <mxGeometry x="510" y="200" width="120" height="80" as="geometry" />
        </mxCell>
        <mxCell id="z6NroQp7eWn7uBLg_rGb-13" value="&lt;b&gt;Redes sociales&lt;/b&gt;" style="ellipse;whiteSpace=wrap;html=1;fontFamily=Helvetica;fontSize=18;fillColor=#fff2cc;gradientColor=#ffd966;strokeColor=#d6b656;" parent="1" vertex="1">
          <mxGeometry x="640" y="300" width="120" height="80" as="geometry" />
        </mxCell>
        <mxCell id="z6NroQp7eWn7uBLg_rGb-15" value="&lt;b&gt;Miembros de la comunidad&lt;/b&gt;" style="ellipse;whiteSpace=wrap;html=1;fontFamily=Helvetica;fontSize=18;fillColor=#e6d0de;gradientColor=#d5739d;strokeColor=#996185;" parent="1" vertex="1">
          <mxGeometry x="640" y="410" width="120" height="80" as="geometry" />
        </mxCell>
        <mxCell id="z6NroQp7eWn7uBLg_rGb-20" style="edgeStyle=none;rounded=0;orthogonalLoop=1;jettySize=auto;html=1;exitX=0;exitY=0.5;exitDx=0;exitDy=0;entryX=1;entryY=0.5;entryDx=0;entryDy=0;fontFamily=Helvetica;fontSize=18;" parent="1" source="z6NroQp7eWn7uBLg_rGb-18" target="z6NroQp7eWn7uBLg_rGb-19" edge="1">
          <mxGeometry relative="1" as="geometry" />
        </mxCell>
        <mxCell id="z6NroQp7eWn7uBLg_rGb-22" style="edgeStyle=orthogonalEdgeStyle;rounded=0;orthogonalLoop=1;jettySize=auto;html=1;exitX=0;exitY=0;exitDx=0;exitDy=0;entryX=0.5;entryY=1;entryDx=0;entryDy=0;fontFamily=Helvetica;fontSize=18;" parent="1" source="z6NroQp7eWn7uBLg_rGb-18" target="z6NroQp7eWn7uBLg_rGb-21" edge="1">
          <mxGeometry relative="1" as="geometry" />
        </mxCell>
        <mxCell id="z6NroQp7eWn7uBLg_rGb-26" style="edgeStyle=orthogonalEdgeStyle;rounded=0;orthogonalLoop=1;jettySize=auto;html=1;exitX=0.5;exitY=0;exitDx=0;exitDy=0;entryX=0.5;entryY=1;entryDx=0;entryDy=0;fontFamily=Helvetica;fontSize=18;" parent="1" source="z6NroQp7eWn7uBLg_rGb-18" target="z6NroQp7eWn7uBLg_rGb-23" edge="1">
          <mxGeometry relative="1" as="geometry" />
        </mxCell>
        <mxCell id="z6NroQp7eWn7uBLg_rGb-28" style="edgeStyle=orthogonalEdgeStyle;rounded=0;orthogonalLoop=1;jettySize=auto;html=1;exitX=1;exitY=0;exitDx=0;exitDy=0;entryX=0.5;entryY=1;entryDx=0;entryDy=0;fontFamily=Helvetica;fontSize=18;" parent="1" source="z6NroQp7eWn7uBLg_rGb-18" target="z6NroQp7eWn7uBLg_rGb-27" edge="1">
          <mxGeometry relative="1" as="geometry" />
        </mxCell>
        <mxCell id="z6NroQp7eWn7uBLg_rGb-31" style="edgeStyle=orthogonalEdgeStyle;rounded=0;orthogonalLoop=1;jettySize=auto;html=1;exitX=1;exitY=0.25;exitDx=0;exitDy=0;entryX=0;entryY=0.5;entryDx=0;entryDy=0;fontFamily=Helvetica;fontSize=18;" parent="1" source="z6NroQp7eWn7uBLg_rGb-18" target="z6NroQp7eWn7uBLg_rGb-29" edge="1">
          <mxGeometry relative="1" as="geometry" />
        </mxCell>
        <mxCell id="z6NroQp7eWn7uBLg_rGb-32" style="edgeStyle=orthogonalEdgeStyle;rounded=0;orthogonalLoop=1;jettySize=auto;html=1;exitX=1;exitY=0.75;exitDx=0;exitDy=0;entryX=0;entryY=0.5;entryDx=0;entryDy=0;fontFamily=Helvetica;fontSize=18;" parent="1" source="z6NroQp7eWn7uBLg_rGb-18" target="z6NroQp7eWn7uBLg_rGb-30" edge="1">
          <mxGeometry relative="1" as="geometry" />
        </mxCell>
        <mxCell id="z6NroQp7eWn7uBLg_rGb-36" style="edgeStyle=orthogonalEdgeStyle;rounded=0;orthogonalLoop=1;jettySize=auto;html=1;exitX=0.5;exitY=1;exitDx=0;exitDy=0;entryX=1;entryY=0.5;entryDx=0;entryDy=0;fontFamily=Helvetica;fontSize=22;shape=link;" parent="1" source="z6NroQp7eWn7uBLg_rGb-18" target="z6NroQp7eWn7uBLg_rGb-34" edge="1">
          <mxGeometry relative="1" as="geometry" />
        </mxCell>
        <mxCell id="z6NroQp7eWn7uBLg_rGb-18" value="&lt;h3 style=&quot;font-size: 18px&quot;&gt;EVENTO&lt;br&gt;&lt;/h3&gt;" style="rounded=0;whiteSpace=wrap;html=1;fillColor=#d5e8d4;strokeColor=#82b366;gradientColor=#97d077;" parent="1" vertex="1">
          <mxGeometry x="1120" y="360" width="200" height="120" as="geometry" />
        </mxCell>
        <mxCell id="z6NroQp7eWn7uBLg_rGb-19" value="id" style="ellipse;whiteSpace=wrap;fontFamily=Helvetica;fontSize=16;fontStyle=1;fillColor=#dae8fc;strokeColor=#6c8ebf;" parent="1" vertex="1">
          <mxGeometry x="910" y="380" width="120" height="80" as="geometry" />
        </mxCell>
        <mxCell id="z6NroQp7eWn7uBLg_rGb-21" value="&lt;b&gt;Nombre&lt;/b&gt;" style="ellipse;whiteSpace=wrap;html=1;fontFamily=Helvetica;fontSize=18;" parent="1" vertex="1">
          <mxGeometry x="1000" y="200" width="120" height="80" as="geometry" />
        </mxCell>
        <mxCell id="z6NroQp7eWn7uBLg_rGb-23" value="&lt;b&gt;Objetivo&lt;/b&gt;" style="ellipse;whiteSpace=wrap;html=1;fontFamily=Helvetica;fontSize=18;" parent="1" vertex="1">
          <mxGeometry x="1160" y="200" width="120" height="80" as="geometry" />
        </mxCell>
        <mxCell id="z6NroQp7eWn7uBLg_rGb-27" value="&lt;b&gt;UbicaciÃ³n&lt;/b&gt;" style="ellipse;whiteSpace=wrap;html=1;fontFamily=Helvetica;fontSize=18;fillColor=#fff2cc;gradientColor=#ffd966;strokeColor=#d6b656;" parent="1" vertex="1">
          <mxGeometry x="1330" y="200" width="120" height="80" as="geometry" />
        </mxCell>
        <mxCell id="z6NroQp7eWn7uBLg_rGb-29" value="&lt;b&gt;Fecha&lt;/b&gt;" style="ellipse;whiteSpace=wrap;html=1;fontFamily=Helvetica;fontSize=18;" parent="1" vertex="1">
          <mxGeometry x="1400" y="350" width="70" height="50" as="geometry" />
        </mxCell>
        <mxCell id="z6NroQp7eWn7uBLg_rGb-30" value="&lt;b&gt;Hora&lt;/b&gt;" style="ellipse;whiteSpace=wrap;html=1;fontFamily=Helvetica;fontSize=18;" parent="1" vertex="1">
          <mxGeometry x="1400" y="430" width="70" height="50" as="geometry" />
        </mxCell>
        <mxCell id="z6NroQp7eWn7uBLg_rGb-34" value="&lt;font style=&quot;font-size: 22px&quot;&gt;&lt;b&gt;Tener&lt;/b&gt;&lt;/font&gt;" style="rhombus;whiteSpace=wrap;html=1;fontFamily=Helvetica;fontSize=18;fillColor=#b1ddf0;strokeColor=#10739e;" parent="1" vertex="1">
          <mxGeometry x="780" y="530" width="140" height="130" as="geometry" />
        </mxCell>
        <mxCell id="z6NroQp7eWn7uBLg_rGb-37" value="1:N" style="text;html=1;strokeColor=none;fillColor=none;align=center;verticalAlign=middle;whiteSpace=wrap;rounded=0;fontFamily=Helvetica;fontSize=22;" parent="1" vertex="1">
          <mxGeometry x="570" y="550" width="60" height="30" as="geometry" />
        </mxCell>
        <mxCell id="z6NroQp7eWn7uBLg_rGb-38" value="1:N" style="text;html=1;strokeColor=none;fillColor=none;align=center;verticalAlign=middle;whiteSpace=wrap;rounded=0;fontFamily=Helvetica;fontSize=22;" parent="1" vertex="1">
          <mxGeometry x="1030" y="550" width="60" height="30" as="geometry" />
        </mxCell>
        <mxCell id="cXiG-wbBNprc3cpvyRiR-1" value="&lt;b&gt;Sitio Web&lt;/b&gt;" style="ellipse;whiteSpace=wrap;html=1;fontFamily=Helvetica;fontSize=18;" parent="1" vertex="1">
          <mxGeometry x="220" y="200" width="120" height="80" as="geometry" />
        </mxCell>
      </root>
    </mxGraphModel>
  </diagram>
  <diagram id="Uj-rJqQbtkCj0MMvBb3F" name="Page-2">
    <mxGraphModel dx="2636" dy="1756" grid="1" gridSize="10" guides="1" tooltips="1" connect="1" arrows="1" fold="1" page="1" pageScale="1" pageWidth="1920" pageHeight="1200" math="0" shadow="0">
      <root>
        <mxCell id="Zqp8C6uSwqwBn6A00dgw-0" />
        <mxCell id="Zqp8C6uSwqwBn6A00dgw-1" parent="Zqp8C6uSwqwBn6A00dgw-0" />
        <mxCell id="u2q3EoSoB3uQqihKcye4-2" style="edgeStyle=orthogonalEdgeStyle;shape=link;rounded=0;orthogonalLoop=1;jettySize=auto;html=1;exitX=0.5;exitY=1;exitDx=0;exitDy=0;fontFamily=Helvetica;fontSize=22;" parent="Zqp8C6uSwqwBn6A00dgw-1" target="u2q3EoSoB3uQqihKcye4-0" edge="1">
          <mxGeometry relative="1" as="geometry">
            <mxPoint x="450" y="465" as="sourcePoint" />
          </mxGeometry>
        </mxCell>
        <mxCell id="394z66VdbD6PXlFpfE4N-35" style="edgeStyle=orthogonalEdgeStyle;rounded=0;orthogonalLoop=1;jettySize=auto;html=1;exitX=0.5;exitY=1;exitDx=0;exitDy=0;entryX=0.5;entryY=0;entryDx=0;entryDy=0;fontFamily=Helvetica;fontSize=22;" parent="Zqp8C6uSwqwBn6A00dgw-1" target="394z66VdbD6PXlFpfE4N-34" edge="1">
          <mxGeometry relative="1" as="geometry">
            <mxPoint x="730" y="475" as="sourcePoint" />
          </mxGeometry>
        </mxCell>
        <mxCell id="8YhG8z1hAjVG_b8a18L7-13" style="edgeStyle=none;rounded=0;orthogonalLoop=1;jettySize=auto;html=1;exitX=0;exitY=0.5;exitDx=0;exitDy=0;entryX=1;entryY=0.5;entryDx=0;entryDy=0;fontFamily=Helvetica;fontSize=18;" parent="Zqp8C6uSwqwBn6A00dgw-1" source="8YhG8z1hAjVG_b8a18L7-19" target="8YhG8z1hAjVG_b8a18L7-20" edge="1">
          <mxGeometry relative="1" as="geometry" />
        </mxCell>
        <mxCell id="8YhG8z1hAjVG_b8a18L7-14" style="edgeStyle=orthogonalEdgeStyle;rounded=0;orthogonalLoop=1;jettySize=auto;html=1;exitX=0;exitY=0;exitDx=0;exitDy=0;entryX=0.5;entryY=1;entryDx=0;entryDy=0;fontFamily=Helvetica;fontSize=18;" parent="Zqp8C6uSwqwBn6A00dgw-1" source="8YhG8z1hAjVG_b8a18L7-19" target="8YhG8z1hAjVG_b8a18L7-21" edge="1">
          <mxGeometry relative="1" as="geometry" />
        </mxCell>
        <mxCell id="8YhG8z1hAjVG_b8a18L7-15" style="edgeStyle=orthogonalEdgeStyle;rounded=0;orthogonalLoop=1;jettySize=auto;html=1;exitX=0.5;exitY=0;exitDx=0;exitDy=0;entryX=0.5;entryY=1;entryDx=0;entryDy=0;fontFamily=Helvetica;fontSize=18;" parent="Zqp8C6uSwqwBn6A00dgw-1" source="8YhG8z1hAjVG_b8a18L7-19" target="8YhG8z1hAjVG_b8a18L7-22" edge="1">
          <mxGeometry relative="1" as="geometry" />
        </mxCell>
        <mxCell id="8YhG8z1hAjVG_b8a18L7-16" style="edgeStyle=orthogonalEdgeStyle;rounded=0;orthogonalLoop=1;jettySize=auto;html=1;exitX=1;exitY=0;exitDx=0;exitDy=0;entryX=0.5;entryY=1;entryDx=0;entryDy=0;fontFamily=Helvetica;fontSize=18;" parent="Zqp8C6uSwqwBn6A00dgw-1" source="8YhG8z1hAjVG_b8a18L7-19" target="8YhG8z1hAjVG_b8a18L7-23" edge="1">
          <mxGeometry relative="1" as="geometry" />
        </mxCell>
        <mxCell id="8YhG8z1hAjVG_b8a18L7-17" style="edgeStyle=orthogonalEdgeStyle;rounded=0;orthogonalLoop=1;jettySize=auto;html=1;exitX=1;exitY=0.25;exitDx=0;exitDy=0;entryX=0;entryY=0.5;entryDx=0;entryDy=0;fontFamily=Helvetica;fontSize=18;" parent="Zqp8C6uSwqwBn6A00dgw-1" source="8YhG8z1hAjVG_b8a18L7-19" target="8YhG8z1hAjVG_b8a18L7-24" edge="1">
          <mxGeometry relative="1" as="geometry" />
        </mxCell>
        <mxCell id="8YhG8z1hAjVG_b8a18L7-18" style="edgeStyle=orthogonalEdgeStyle;rounded=0;orthogonalLoop=1;jettySize=auto;html=1;exitX=1;exitY=0.75;exitDx=0;exitDy=0;entryX=0;entryY=0.5;entryDx=0;entryDy=0;fontFamily=Helvetica;fontSize=18;" parent="Zqp8C6uSwqwBn6A00dgw-1" source="8YhG8z1hAjVG_b8a18L7-19" target="8YhG8z1hAjVG_b8a18L7-25" edge="1">
          <mxGeometry relative="1" as="geometry" />
        </mxCell>
        <mxCell id="u2q3EoSoB3uQqihKcye4-4" style="edgeStyle=orthogonalEdgeStyle;shape=link;rounded=0;orthogonalLoop=1;jettySize=auto;html=1;exitX=0.5;exitY=1;exitDx=0;exitDy=0;entryX=0.5;entryY=0;entryDx=0;entryDy=0;fontFamily=Helvetica;fontSize=22;" parent="Zqp8C6uSwqwBn6A00dgw-1" source="8YhG8z1hAjVG_b8a18L7-19" target="u2q3EoSoB3uQqihKcye4-1" edge="1">
          <mxGeometry relative="1" as="geometry" />
        </mxCell>
        <mxCell id="8YhG8z1hAjVG_b8a18L7-19" value="&lt;h3 style=&quot;font-size: 18px&quot;&gt;EVENTO&lt;br&gt;&lt;/h3&gt;" style="rounded=0;whiteSpace=wrap;html=1;fillColor=#d5e8d4;strokeColor=#82b366;gradientColor=#97d077;" parent="Zqp8C6uSwqwBn6A00dgw-1" vertex="1">
          <mxGeometry x="1190" y="345" width="200" height="120" as="geometry" />
        </mxCell>
        <mxCell id="8YhG8z1hAjVG_b8a18L7-20" value="id" style="ellipse;whiteSpace=wrap;fontFamily=Helvetica;fontSize=16;fontStyle=1;fillColor=#dae8fc;strokeColor=#6c8ebf;" parent="Zqp8C6uSwqwBn6A00dgw-1" vertex="1">
          <mxGeometry x="980" y="365" width="120" height="80" as="geometry" />
        </mxCell>
        <mxCell id="8YhG8z1hAjVG_b8a18L7-21" value="&lt;b&gt;Nombre&lt;/b&gt;" style="ellipse;whiteSpace=wrap;html=1;fontFamily=Helvetica;fontSize=18;" parent="Zqp8C6uSwqwBn6A00dgw-1" vertex="1">
          <mxGeometry x="1070" y="195" width="120" height="80" as="geometry" />
        </mxCell>
        <mxCell id="8YhG8z1hAjVG_b8a18L7-22" value="&lt;b&gt;Objetivo&lt;/b&gt;" style="ellipse;whiteSpace=wrap;html=1;fontFamily=Helvetica;fontSize=18;" parent="Zqp8C6uSwqwBn6A00dgw-1" vertex="1">
          <mxGeometry x="1230" y="195" width="120" height="80" as="geometry" />
        </mxCell>
        <mxCell id="qFmMehJHdUWHoeeP9cG--14" style="edgeStyle=orthogonalEdgeStyle;rounded=0;orthogonalLoop=1;jettySize=auto;html=1;exitX=0.5;exitY=0;exitDx=0;exitDy=0;entryX=1;entryY=0.5;entryDx=0;entryDy=0;" edge="1" parent="Zqp8C6uSwqwBn6A00dgw-1" source="8YhG8z1hAjVG_b8a18L7-23" target="qFmMehJHdUWHoeeP9cG--10">
          <mxGeometry relative="1" as="geometry" />
        </mxCell>
        <mxCell id="qFmMehJHdUWHoeeP9cG--15" style="edgeStyle=orthogonalEdgeStyle;rounded=0;orthogonalLoop=1;jettySize=auto;html=1;exitX=1;exitY=0.5;exitDx=0;exitDy=0;entryX=0;entryY=0.5;entryDx=0;entryDy=0;shape=link;" edge="1" parent="Zqp8C6uSwqwBn6A00dgw-1" source="8YhG8z1hAjVG_b8a18L7-23" target="qFmMehJHdUWHoeeP9cG--6">
          <mxGeometry relative="1" as="geometry" />
        </mxCell>
        <mxCell id="8YhG8z1hAjVG_b8a18L7-23" value="&lt;b&gt;UbicaciÃ³n&lt;/b&gt;" style="ellipse;whiteSpace=wrap;html=1;fontFamily=Helvetica;fontSize=18;fillColor=#fff2cc;gradientColor=#ffd966;strokeColor=#d6b656;" parent="Zqp8C6uSwqwBn6A00dgw-1" vertex="1">
          <mxGeometry x="1400" y="195" width="120" height="80" as="geometry" />
        </mxCell>
        <mxCell id="8YhG8z1hAjVG_b8a18L7-24" value="&lt;b&gt;Fecha&lt;/b&gt;" style="ellipse;whiteSpace=wrap;html=1;fontFamily=Helvetica;fontSize=18;" parent="Zqp8C6uSwqwBn6A00dgw-1" vertex="1">
          <mxGeometry x="1470" y="345" width="70" height="50" as="geometry" />
        </mxCell>
        <mxCell id="8YhG8z1hAjVG_b8a18L7-25" value="&lt;b&gt;Hora&lt;/b&gt;" style="ellipse;whiteSpace=wrap;html=1;fontFamily=Helvetica;fontSize=18;" parent="Zqp8C6uSwqwBn6A00dgw-1" vertex="1">
          <mxGeometry x="1470" y="425" width="70" height="50" as="geometry" />
        </mxCell>
        <mxCell id="u2q3EoSoB3uQqihKcye4-7" style="edgeStyle=orthogonalEdgeStyle;rounded=0;orthogonalLoop=1;jettySize=auto;html=1;exitX=0;exitY=1;exitDx=0;exitDy=0;entryX=1;entryY=0.5;entryDx=0;entryDy=0;fontFamily=Helvetica;fontSize=22;" parent="Zqp8C6uSwqwBn6A00dgw-1" source="8YhG8z1hAjVG_b8a18L7-26" target="u2q3EoSoB3uQqihKcye4-6" edge="1">
          <mxGeometry relative="1" as="geometry" />
        </mxCell>
        <mxCell id="u2q3EoSoB3uQqihKcye4-9" style="edgeStyle=orthogonalEdgeStyle;rounded=0;orthogonalLoop=1;jettySize=auto;html=1;exitX=0.25;exitY=1;exitDx=0;exitDy=0;fontFamily=Helvetica;fontSize=22;" parent="Zqp8C6uSwqwBn6A00dgw-1" source="8YhG8z1hAjVG_b8a18L7-26" target="u2q3EoSoB3uQqihKcye4-8" edge="1">
          <mxGeometry relative="1" as="geometry" />
        </mxCell>
        <mxCell id="u2q3EoSoB3uQqihKcye4-11" style="edgeStyle=orthogonalEdgeStyle;rounded=0;orthogonalLoop=1;jettySize=auto;html=1;exitX=0.75;exitY=1;exitDx=0;exitDy=0;entryX=0.5;entryY=0;entryDx=0;entryDy=0;fontFamily=Helvetica;fontSize=22;" parent="Zqp8C6uSwqwBn6A00dgw-1" source="8YhG8z1hAjVG_b8a18L7-26" target="u2q3EoSoB3uQqihKcye4-10" edge="1">
          <mxGeometry relative="1" as="geometry" />
        </mxCell>
        <mxCell id="394z66VdbD6PXlFpfE4N-2" style="edgeStyle=orthogonalEdgeStyle;rounded=0;orthogonalLoop=1;jettySize=auto;html=1;exitX=1;exitY=1;exitDx=0;exitDy=0;entryX=0;entryY=0;entryDx=0;entryDy=0;fontFamily=Helvetica;fontSize=22;" parent="Zqp8C6uSwqwBn6A00dgw-1" source="8YhG8z1hAjVG_b8a18L7-26" target="394z66VdbD6PXlFpfE4N-0" edge="1">
          <mxGeometry relative="1" as="geometry" />
        </mxCell>
        <mxCell id="394z66VdbD6PXlFpfE4N-3" style="edgeStyle=orthogonalEdgeStyle;rounded=0;orthogonalLoop=1;jettySize=auto;html=1;exitX=1;exitY=0.75;exitDx=0;exitDy=0;entryX=0;entryY=0.5;entryDx=0;entryDy=0;fontFamily=Helvetica;fontSize=22;" parent="Zqp8C6uSwqwBn6A00dgw-1" source="8YhG8z1hAjVG_b8a18L7-26" target="394z66VdbD6PXlFpfE4N-1" edge="1">
          <mxGeometry relative="1" as="geometry" />
        </mxCell>
        <mxCell id="8YhG8z1hAjVG_b8a18L7-26" value="&lt;h3 style=&quot;font-size: 18px&quot;&gt;Registro&lt;br&gt;&lt;/h3&gt;" style="rounded=0;whiteSpace=wrap;html=1;fillColor=#d5e8d4;strokeColor=#82b366;gradientColor=#97d077;" parent="Zqp8C6uSwqwBn6A00dgw-1" vertex="1">
          <mxGeometry x="780" y="625" width="200" height="120" as="geometry" />
        </mxCell>
        <mxCell id="u2q3EoSoB3uQqihKcye4-3" style="edgeStyle=orthogonalEdgeStyle;shape=link;rounded=0;orthogonalLoop=1;jettySize=auto;html=1;exitX=0.5;exitY=1;exitDx=0;exitDy=0;entryX=0;entryY=0.5;entryDx=0;entryDy=0;fontFamily=Helvetica;fontSize=22;" parent="Zqp8C6uSwqwBn6A00dgw-1" source="u2q3EoSoB3uQqihKcye4-0" target="8YhG8z1hAjVG_b8a18L7-26" edge="1">
          <mxGeometry relative="1" as="geometry" />
        </mxCell>
        <mxCell id="u2q3EoSoB3uQqihKcye4-0" value="&lt;b&gt;Generar&lt;/b&gt;" style="rhombus;whiteSpace=wrap;html=1;fontFamily=Helvetica;fontSize=18;fillColor=#b1ddf0;strokeColor=#10739e;" parent="Zqp8C6uSwqwBn6A00dgw-1" vertex="1">
          <mxGeometry x="390" y="540" width="120" height="110" as="geometry" />
        </mxCell>
        <mxCell id="u2q3EoSoB3uQqihKcye4-5" style="edgeStyle=orthogonalEdgeStyle;shape=link;rounded=0;orthogonalLoop=1;jettySize=auto;html=1;exitX=0.5;exitY=1;exitDx=0;exitDy=0;entryX=1;entryY=0.5;entryDx=0;entryDy=0;fontFamily=Helvetica;fontSize=22;" parent="Zqp8C6uSwqwBn6A00dgw-1" source="u2q3EoSoB3uQqihKcye4-1" target="8YhG8z1hAjVG_b8a18L7-26" edge="1">
          <mxGeometry relative="1" as="geometry" />
        </mxCell>
        <mxCell id="u2q3EoSoB3uQqihKcye4-1" value="&lt;b&gt;Tener&lt;/b&gt;" style="rhombus;whiteSpace=wrap;html=1;fontFamily=Helvetica;fontSize=18;fillColor=#b1ddf0;strokeColor=#10739e;" parent="Zqp8C6uSwqwBn6A00dgw-1" vertex="1">
          <mxGeometry x="1230" y="550" width="120" height="110" as="geometry" />
        </mxCell>
        <mxCell id="u2q3EoSoB3uQqihKcye4-6" value="id" style="ellipse;whiteSpace=wrap;fontFamily=Helvetica;fontSize=16;fontStyle=1;fillColor=#dae8fc;strokeColor=#6c8ebf;" parent="Zqp8C6uSwqwBn6A00dgw-1" vertex="1">
          <mxGeometry x="560" y="745" width="120" height="80" as="geometry" />
        </mxCell>
        <mxCell id="u2q3EoSoB3uQqihKcye4-14" style="edgeStyle=orthogonalEdgeStyle;rounded=0;orthogonalLoop=1;jettySize=auto;html=1;exitX=0;exitY=0.5;exitDx=0;exitDy=0;entryX=1;entryY=0.5;entryDx=0;entryDy=0;fontFamily=Helvetica;fontSize=22;" parent="Zqp8C6uSwqwBn6A00dgw-1" source="u2q3EoSoB3uQqihKcye4-8" target="u2q3EoSoB3uQqihKcye4-12" edge="1">
          <mxGeometry relative="1" as="geometry" />
        </mxCell>
        <mxCell id="u2q3EoSoB3uQqihKcye4-15" style="edgeStyle=orthogonalEdgeStyle;rounded=0;orthogonalLoop=1;jettySize=auto;html=1;exitX=0.5;exitY=1;exitDx=0;exitDy=0;entryX=0.5;entryY=0;entryDx=0;entryDy=0;fontFamily=Helvetica;fontSize=22;" parent="Zqp8C6uSwqwBn6A00dgw-1" source="u2q3EoSoB3uQqihKcye4-8" target="u2q3EoSoB3uQqihKcye4-13" edge="1">
          <mxGeometry relative="1" as="geometry" />
        </mxCell>
        <mxCell id="u2q3EoSoB3uQqihKcye4-8" value="&lt;b&gt;Persona&lt;/b&gt; (alias)" style="ellipse;whiteSpace=wrap;html=1;fontFamily=Helvetica;fontSize=18;fillColor=#fff2cc;strokeColor=#d6b656;gradientColor=#ffd966;" parent="Zqp8C6uSwqwBn6A00dgw-1" vertex="1">
          <mxGeometry x="740" y="865" width="120" height="80" as="geometry" />
        </mxCell>
        <mxCell id="u2q3EoSoB3uQqihKcye4-10" value="&lt;b&gt;OcupaciÃ³n&lt;/b&gt;" style="ellipse;whiteSpace=wrap;html=1;fontFamily=Helvetica;fontSize=18;fillColor=#fff2cc;strokeColor=#d6b656;gradientColor=#ffd966;" parent="Zqp8C6uSwqwBn6A00dgw-1" vertex="1">
          <mxGeometry x="900" y="865" width="120" height="80" as="geometry" />
        </mxCell>
        <mxCell id="u2q3EoSoB3uQqihKcye4-12" value="&lt;b&gt;Nombre&lt;/b&gt;" style="ellipse;whiteSpace=wrap;html=1;fontFamily=Helvetica;fontSize=18;fillColor=#ffff88;strokeColor=#36393d;" parent="Zqp8C6uSwqwBn6A00dgw-1" vertex="1">
          <mxGeometry x="620" y="905" width="80" height="60" as="geometry" />
        </mxCell>
        <mxCell id="u2q3EoSoB3uQqihKcye4-13" value="&lt;b&gt;DirecciÃ³n&lt;/b&gt;" style="ellipse;whiteSpace=wrap;html=1;fontFamily=Helvetica;fontSize=18;fillColor=#ffff88;strokeColor=#36393d;" parent="Zqp8C6uSwqwBn6A00dgw-1" vertex="1">
          <mxGeometry x="690" y="975" width="80" height="60" as="geometry" />
        </mxCell>
        <mxCell id="394z66VdbD6PXlFpfE4N-25" style="edgeStyle=orthogonalEdgeStyle;rounded=0;orthogonalLoop=1;jettySize=auto;html=1;exitX=1;exitY=0.5;exitDx=0;exitDy=0;entryX=0;entryY=0.5;entryDx=0;entryDy=0;fontFamily=Helvetica;fontSize=22;" parent="Zqp8C6uSwqwBn6A00dgw-1" source="394z66VdbD6PXlFpfE4N-0" target="394z66VdbD6PXlFpfE4N-24" edge="1">
          <mxGeometry relative="1" as="geometry" />
        </mxCell>
        <mxCell id="394z66VdbD6PXlFpfE4N-31" style="edgeStyle=orthogonalEdgeStyle;rounded=0;orthogonalLoop=1;jettySize=auto;html=1;exitX=0.5;exitY=1;exitDx=0;exitDy=0;entryX=0.5;entryY=0;entryDx=0;entryDy=0;fontFamily=Helvetica;fontSize=22;" parent="Zqp8C6uSwqwBn6A00dgw-1" source="394z66VdbD6PXlFpfE4N-0" target="394z66VdbD6PXlFpfE4N-4" edge="1">
          <mxGeometry relative="1" as="geometry" />
        </mxCell>
        <mxCell id="394z66VdbD6PXlFpfE4N-32" style="edgeStyle=orthogonalEdgeStyle;rounded=0;orthogonalLoop=1;jettySize=auto;html=1;exitX=1;exitY=1;exitDx=0;exitDy=0;entryX=1;entryY=0.5;entryDx=0;entryDy=0;fontFamily=Helvetica;fontSize=22;" parent="Zqp8C6uSwqwBn6A00dgw-1" source="394z66VdbD6PXlFpfE4N-0" target="394z66VdbD6PXlFpfE4N-5" edge="1">
          <mxGeometry relative="1" as="geometry">
            <Array as="points">
              <mxPoint x="1220" y="853" />
              <mxPoint x="1220" y="1005" />
            </Array>
          </mxGeometry>
        </mxCell>
        <mxCell id="394z66VdbD6PXlFpfE4N-0" value="&lt;b&gt;Comunidad&lt;/b&gt;" style="ellipse;whiteSpace=wrap;html=1;fontFamily=Helvetica;fontSize=18;fillColor=#fff2cc;strokeColor=#d6b656;gradientColor=#ffd966;" parent="Zqp8C6uSwqwBn6A00dgw-1" vertex="1">
          <mxGeometry x="1080" y="785" width="120" height="80" as="geometry" />
        </mxCell>
        <mxCell id="394z66VdbD6PXlFpfE4N-22" style="edgeStyle=orthogonalEdgeStyle;rounded=0;orthogonalLoop=1;jettySize=auto;html=1;exitX=1;exitY=0.5;exitDx=0;exitDy=0;entryX=1;entryY=0.5;entryDx=0;entryDy=0;fontFamily=Helvetica;fontSize=22;" parent="Zqp8C6uSwqwBn6A00dgw-1" source="394z66VdbD6PXlFpfE4N-1" target="394z66VdbD6PXlFpfE4N-12" edge="1">
          <mxGeometry relative="1" as="geometry">
            <Array as="points">
              <mxPoint x="1580" y="765" />
              <mxPoint x="1580" y="965" />
            </Array>
          </mxGeometry>
        </mxCell>
        <mxCell id="394z66VdbD6PXlFpfE4N-23" style="edgeStyle=orthogonalEdgeStyle;rounded=0;orthogonalLoop=1;jettySize=auto;html=1;exitX=0.5;exitY=0;exitDx=0;exitDy=0;entryX=0;entryY=0.5;entryDx=0;entryDy=0;fontFamily=Helvetica;fontSize=22;" parent="Zqp8C6uSwqwBn6A00dgw-1" source="394z66VdbD6PXlFpfE4N-1" target="394z66VdbD6PXlFpfE4N-15" edge="1">
          <mxGeometry relative="1" as="geometry" />
        </mxCell>
        <mxCell id="394z66VdbD6PXlFpfE4N-33" style="edgeStyle=orthogonalEdgeStyle;rounded=0;orthogonalLoop=1;jettySize=auto;html=1;exitX=0.5;exitY=1;exitDx=0;exitDy=0;entryX=0.5;entryY=0;entryDx=0;entryDy=0;fontFamily=Helvetica;fontSize=22;" parent="Zqp8C6uSwqwBn6A00dgw-1" source="394z66VdbD6PXlFpfE4N-1" target="394z66VdbD6PXlFpfE4N-11" edge="1">
          <mxGeometry relative="1" as="geometry" />
        </mxCell>
        <mxCell id="394z66VdbD6PXlFpfE4N-1" value="&lt;b&gt;EVENTOS&lt;/b&gt;" style="ellipse;whiteSpace=wrap;html=1;fontFamily=Helvetica;fontSize=18;fillColor=#e6d0de;gradientColor=#d5739d;strokeColor=#996185;" parent="Zqp8C6uSwqwBn6A00dgw-1" vertex="1">
          <mxGeometry x="1420" y="725" width="120" height="80" as="geometry" />
        </mxCell>
        <mxCell id="394z66VdbD6PXlFpfE4N-4" value="&lt;b&gt;Por quÃ© medio&lt;/b&gt;" style="ellipse;whiteSpace=wrap;html=1;fontFamily=Helvetica;fontSize=18;fillColor=#ffff88;strokeColor=#36393d;" parent="Zqp8C6uSwqwBn6A00dgw-1" vertex="1">
          <mxGeometry x="1100" y="895" width="80" height="60" as="geometry" />
        </mxCell>
        <mxCell id="394z66VdbD6PXlFpfE4N-5" value="&lt;b&gt;Motivo uniÃ³n&lt;/b&gt;" style="ellipse;whiteSpace=wrap;html=1;fontFamily=Helvetica;fontSize=18;fillColor=#ffff88;strokeColor=#36393d;" parent="Zqp8C6uSwqwBn6A00dgw-1" vertex="1">
          <mxGeometry x="1100" y="975" width="80" height="60" as="geometry" />
        </mxCell>
        <mxCell id="394z66VdbD6PXlFpfE4N-11" value="&lt;b&gt;Por quÃ© medio&lt;/b&gt;" style="ellipse;whiteSpace=wrap;html=1;fontFamily=Helvetica;fontSize=18;fillColor=#ffff88;strokeColor=#36393d;" parent="Zqp8C6uSwqwBn6A00dgw-1" vertex="1">
          <mxGeometry x="1440" y="845" width="80" height="60" as="geometry" />
        </mxCell>
        <mxCell id="394z66VdbD6PXlFpfE4N-12" value="&lt;b&gt;Motivo uniÃ³n&lt;/b&gt;" style="ellipse;whiteSpace=wrap;html=1;fontFamily=Helvetica;fontSize=18;fillColor=#ffff88;strokeColor=#36393d;" parent="Zqp8C6uSwqwBn6A00dgw-1" vertex="1">
          <mxGeometry x="1440" y="935" width="80" height="60" as="geometry" />
        </mxCell>
        <mxCell id="394z66VdbD6PXlFpfE4N-15" value="Â id evento" style="ellipse;whiteSpace=wrap;fontFamily=Helvetica;fontSize=16;fontStyle=1;fillColor=#dae8fc;strokeColor=#6c8ebf;" parent="Zqp8C6uSwqwBn6A00dgw-1" vertex="1">
          <mxGeometry x="1540" y="660" width="80" height="60" as="geometry" />
        </mxCell>
        <mxCell id="394z66VdbD6PXlFpfE4N-20" value="&amp;nbsp;" style="text;whiteSpace=wrap;html=1;fontSize=22;fontFamily=Helvetica;" parent="Zqp8C6uSwqwBn6A00dgw-1" vertex="1">
          <mxGeometry x="1220" y="765" width="30" height="40" as="geometry" />
        </mxCell>
        <mxCell id="394z66VdbD6PXlFpfE4N-24" value="Â id comunidad" style="ellipse;whiteSpace=wrap;fontFamily=Helvetica;fontSize=16;fontStyle=1;fillColor=#dae8fc;strokeColor=#6c8ebf;" parent="Zqp8C6uSwqwBn6A00dgw-1" vertex="1">
          <mxGeometry x="1240" y="795" width="80" height="60" as="geometry" />
        </mxCell>
        <mxCell id="394z66VdbD6PXlFpfE4N-34" value="Â id registro" style="ellipse;whiteSpace=wrap;fontFamily=Helvetica;fontSize=16;fontStyle=1;fillColor=#dae8fc;strokeColor=#6c8ebf;" parent="Zqp8C6uSwqwBn6A00dgw-1" vertex="1">
          <mxGeometry x="690" y="505" width="80" height="60" as="geometry" />
        </mxCell>
        <mxCell id="jaMNIkMxL0YJONlznXtX-0" value="" style="edgeStyle=orthogonalEdgeStyle;rounded=0;orthogonalLoop=1;jettySize=auto;html=1;fontFamily=Verdana;fontSize=16;" parent="Zqp8C6uSwqwBn6A00dgw-1" source="jaMNIkMxL0YJONlznXtX-7" edge="1">
          <mxGeometry relative="1" as="geometry">
            <mxPoint x="270" y="405" as="targetPoint" />
          </mxGeometry>
        </mxCell>
        <mxCell id="jaMNIkMxL0YJONlznXtX-1" style="edgeStyle=orthogonalEdgeStyle;rounded=0;orthogonalLoop=1;jettySize=auto;html=1;exitX=0;exitY=0;exitDx=0;exitDy=0;fontFamily=Helvetica;fontSize=18;entryX=1;entryY=0.5;entryDx=0;entryDy=0;" parent="Zqp8C6uSwqwBn6A00dgw-1" source="jaMNIkMxL0YJONlznXtX-7" target="jaMNIkMxL0YJONlznXtX-9" edge="1">
          <mxGeometry relative="1" as="geometry">
            <mxPoint x="270" y="265" as="targetPoint" />
            <Array as="points">
              <mxPoint x="350" y="325" />
              <mxPoint x="260" y="325" />
            </Array>
          </mxGeometry>
        </mxCell>
        <mxCell id="jaMNIkMxL0YJONlznXtX-2" style="edgeStyle=orthogonalEdgeStyle;rounded=0;orthogonalLoop=1;jettySize=auto;html=1;exitX=0.5;exitY=0;exitDx=0;exitDy=0;fontFamily=Helvetica;fontSize=18;" parent="Zqp8C6uSwqwBn6A00dgw-1" source="jaMNIkMxL0YJONlznXtX-7" edge="1">
          <mxGeometry relative="1" as="geometry">
            <mxPoint x="450" y="275" as="targetPoint" />
          </mxGeometry>
        </mxCell>
        <mxCell id="jaMNIkMxL0YJONlznXtX-3" style="edgeStyle=orthogonalEdgeStyle;rounded=0;orthogonalLoop=1;jettySize=auto;html=1;exitX=1;exitY=0.5;exitDx=0;exitDy=0;fontFamily=Helvetica;fontSize=18;" parent="Zqp8C6uSwqwBn6A00dgw-1" source="jaMNIkMxL0YJONlznXtX-7" target="jaMNIkMxL0YJONlznXtX-12" edge="1">
          <mxGeometry relative="1" as="geometry">
            <mxPoint x="750" y="405" as="targetPoint" />
          </mxGeometry>
        </mxCell>
        <mxCell id="jaMNIkMxL0YJONlznXtX-4" style="edgeStyle=orthogonalEdgeStyle;rounded=0;orthogonalLoop=1;jettySize=auto;html=1;exitX=1;exitY=0.75;exitDx=0;exitDy=0;fontFamily=Helvetica;fontSize=18;" parent="Zqp8C6uSwqwBn6A00dgw-1" source="jaMNIkMxL0YJONlznXtX-7" target="jaMNIkMxL0YJONlznXtX-13" edge="1">
          <mxGeometry relative="1" as="geometry">
            <mxPoint x="450" y="545" as="targetPoint" />
          </mxGeometry>
        </mxCell>
        <mxCell id="jaMNIkMxL0YJONlznXtX-5" style="edgeStyle=orthogonalEdgeStyle;rounded=0;orthogonalLoop=1;jettySize=auto;html=1;exitX=0.75;exitY=0;exitDx=0;exitDy=0;entryX=0.5;entryY=1;entryDx=0;entryDy=0;fontFamily=Helvetica;fontSize=16;" parent="Zqp8C6uSwqwBn6A00dgw-1" source="jaMNIkMxL0YJONlznXtX-7" target="jaMNIkMxL0YJONlznXtX-11" edge="1">
          <mxGeometry relative="1" as="geometry" />
        </mxCell>
        <mxCell id="jaMNIkMxL0YJONlznXtX-6" style="edgeStyle=orthogonalEdgeStyle;rounded=0;orthogonalLoop=1;jettySize=auto;html=1;exitX=0.25;exitY=0;exitDx=0;exitDy=0;entryX=0.5;entryY=1;entryDx=0;entryDy=0;fontFamily=Helvetica;fontSize=16;" parent="Zqp8C6uSwqwBn6A00dgw-1" source="jaMNIkMxL0YJONlznXtX-7" target="jaMNIkMxL0YJONlznXtX-14" edge="1">
          <mxGeometry relative="1" as="geometry" />
        </mxCell>
        <mxCell id="jaMNIkMxL0YJONlznXtX-7" value="&lt;h3 style=&quot;font-size: 18px&quot;&gt;&lt;font style=&quot;font-size: 18px&quot; face=&quot;Verdana&quot;&gt;COMUNIDAD&lt;/font&gt;&lt;br&gt;&lt;/h3&gt;" style="rounded=0;whiteSpace=wrap;html=1;fillColor=#d5e8d4;strokeColor=#82b366;gradientColor=#97d077;" parent="Zqp8C6uSwqwBn6A00dgw-1" vertex="1">
          <mxGeometry x="350" y="345" width="200" height="120" as="geometry" />
        </mxCell>
        <mxCell id="jaMNIkMxL0YJONlznXtX-8" value="id" style="ellipse;whiteSpace=wrap;fontFamily=Helvetica;fontSize=16;fontStyle=1;fillColor=#dae8fc;strokeColor=#6c8ebf;" parent="Zqp8C6uSwqwBn6A00dgw-1" vertex="1">
          <mxGeometry x="140" y="365" width="120" height="80" as="geometry" />
        </mxCell>
        <mxCell id="jaMNIkMxL0YJONlznXtX-9" value="&lt;b&gt;Nombre&lt;/b&gt;" style="ellipse;whiteSpace=wrap;html=1;fontFamily=Helvetica;fontSize=18;" parent="Zqp8C6uSwqwBn6A00dgw-1" vertex="1">
          <mxGeometry x="140" y="255" width="120" height="80" as="geometry" />
        </mxCell>
        <mxCell id="jaMNIkMxL0YJONlznXtX-10" value="&lt;b&gt;Tipo de comunidad&lt;/b&gt;" style="ellipse;whiteSpace=wrap;html=1;fontFamily=Helvetica;fontSize=18;fillColor=#fff2cc;strokeColor=#d6b656;gradientColor=#ffd966;" parent="Zqp8C6uSwqwBn6A00dgw-1" vertex="1">
          <mxGeometry x="390" y="185" width="120" height="80" as="geometry" />
        </mxCell>
        <mxCell id="jaMNIkMxL0YJONlznXtX-11" value="&lt;b&gt;UbicaciÃ³n&lt;/b&gt;" style="ellipse;whiteSpace=wrap;html=1;fontFamily=Helvetica;fontSize=18;fillColor=#fff2cc;gradientColor=#ffd966;strokeColor=#d6b656;" parent="Zqp8C6uSwqwBn6A00dgw-1" vertex="1">
          <mxGeometry x="540" y="185" width="120" height="80" as="geometry" />
        </mxCell>
        <mxCell id="jaMNIkMxL0YJONlznXtX-12" value="&lt;b&gt;Redes sociales&lt;/b&gt;" style="ellipse;whiteSpace=wrap;html=1;fontFamily=Helvetica;fontSize=18;fillColor=#fff2cc;gradientColor=#ffd966;strokeColor=#d6b656;" parent="Zqp8C6uSwqwBn6A00dgw-1" vertex="1">
          <mxGeometry x="670" y="285" width="120" height="80" as="geometry" />
        </mxCell>
        <mxCell id="jaMNIkMxL0YJONlznXtX-13" value="&lt;b&gt;Miembros de la comunidad&lt;/b&gt;" style="ellipse;whiteSpace=wrap;html=1;fontFamily=Helvetica;fontSize=18;fillColor=#e6d0de;gradientColor=#d5739d;strokeColor=#996185;" parent="Zqp8C6uSwqwBn6A00dgw-1" vertex="1">
          <mxGeometry x="670" y="395" width="120" height="80" as="geometry" />
        </mxCell>
        <mxCell id="jaMNIkMxL0YJONlznXtX-14" value="&lt;b&gt;Sitio Web&lt;/b&gt;" style="ellipse;whiteSpace=wrap;html=1;fontFamily=Helvetica;fontSize=18;" parent="Zqp8C6uSwqwBn6A00dgw-1" vertex="1">
          <mxGeometry x="250" y="185" width="120" height="80" as="geometry" />
        </mxCell>
        <mxCell id="qFmMehJHdUWHoeeP9cG--11" style="edgeStyle=orthogonalEdgeStyle;rounded=0;orthogonalLoop=1;jettySize=auto;html=1;exitX=0.5;exitY=0;exitDx=0;exitDy=0;entryX=0;entryY=0.5;entryDx=0;entryDy=0;" edge="1" parent="Zqp8C6uSwqwBn6A00dgw-1" source="qFmMehJHdUWHoeeP9cG--6" target="qFmMehJHdUWHoeeP9cG--7">
          <mxGeometry relative="1" as="geometry" />
        </mxCell>
        <mxCell id="qFmMehJHdUWHoeeP9cG--12" style="edgeStyle=orthogonalEdgeStyle;rounded=0;orthogonalLoop=1;jettySize=auto;html=1;exitX=1;exitY=0.5;exitDx=0;exitDy=0;entryX=0;entryY=0.5;entryDx=0;entryDy=0;" edge="1" parent="Zqp8C6uSwqwBn6A00dgw-1" source="qFmMehJHdUWHoeeP9cG--6" target="qFmMehJHdUWHoeeP9cG--8">
          <mxGeometry relative="1" as="geometry">
            <mxPoint x="1700" y="235.00000000000023" as="targetPoint" />
          </mxGeometry>
        </mxCell>
        <mxCell id="qFmMehJHdUWHoeeP9cG--13" style="edgeStyle=orthogonalEdgeStyle;rounded=0;orthogonalLoop=1;jettySize=auto;html=1;exitX=0.5;exitY=1;exitDx=0;exitDy=0;entryX=0;entryY=0.5;entryDx=0;entryDy=0;" edge="1" parent="Zqp8C6uSwqwBn6A00dgw-1" source="qFmMehJHdUWHoeeP9cG--6" target="qFmMehJHdUWHoeeP9cG--9">
          <mxGeometry relative="1" as="geometry" />
        </mxCell>
        <mxCell id="qFmMehJHdUWHoeeP9cG--6" value="&lt;b&gt;Tener&lt;/b&gt;" style="rhombus;whiteSpace=wrap;html=1;fontFamily=Helvetica;fontSize=18;fillColor=#b1ddf0;strokeColor=#10739e;" vertex="1" parent="Zqp8C6uSwqwBn6A00dgw-1">
          <mxGeometry x="1540" y="195" width="90" height="80" as="geometry" />
        </mxCell>
        <mxCell id="qFmMehJHdUWHoeeP9cG--7" value="PaÃ­s" style="ellipse;whiteSpace=wrap;html=1;fontFamily=Helvetica;fontSize=18;" vertex="1" parent="Zqp8C6uSwqwBn6A00dgw-1">
          <mxGeometry x="1710" y="130" width="100" height="50" as="geometry" />
        </mxCell>
        <mxCell id="qFmMehJHdUWHoeeP9cG--8" value="Estado" style="ellipse;whiteSpace=wrap;html=1;fontFamily=Helvetica;fontSize=18;" vertex="1" parent="Zqp8C6uSwqwBn6A00dgw-1">
          <mxGeometry x="1710" y="210" width="100" height="50" as="geometry" />
        </mxCell>
        <mxCell id="qFmMehJHdUWHoeeP9cG--9" value="C.P." style="ellipse;whiteSpace=wrap;html=1;fontFamily=Helvetica;fontSize=18;" vertex="1" parent="Zqp8C6uSwqwBn6A00dgw-1">
          <mxGeometry x="1710" y="290" width="100" height="50" as="geometry" />
        </mxCell>
        <mxCell id="qFmMehJHdUWHoeeP9cG--10" value="id" style="ellipse;whiteSpace=wrap;fontFamily=Helvetica;fontSize=16;fontStyle=1;fillColor=#dae8fc;strokeColor=#6c8ebf;" vertex="1" parent="Zqp8C6uSwqwBn6A00dgw-1">
          <mxGeometry x="1380" y="135" width="70" height="50" as="geometry" />
        </mxCell>
      </root>
    </mxGraphModel>
  </diagram>
  <diagram id="lSjL-J0xbk-WQnKCeOjX" name="Page-3">
    <mxGraphModel dx="1648" dy="1098" grid="1" gridSize="10" guides="1" tooltips="1" connect="1" arrows="1" fold="1" page="1" pageScale="1" pageWidth="1600" pageHeight="900" math="0" shadow="0">
      <root>
        <mxCell id="Dc3M_s4ICyyyCjkiY2Pd-0" />
        <mxCell id="Dc3M_s4ICyyyCjkiY2Pd-1" parent="Dc3M_s4ICyyyCjkiY2Pd-0" />
        <mxCell id="77kEgxCWMEARlSsbuSrW-17" style="edgeStyle=orthogonalEdgeStyle;rounded=0;orthogonalLoop=1;jettySize=auto;html=1;exitX=0;exitY=0.5;exitDx=0;exitDy=0;fontFamily=Helvetica;fontSize=22;" parent="Dc3M_s4ICyyyCjkiY2Pd-1" source="77kEgxCWMEARlSsbuSrW-7" edge="1">
          <mxGeometry relative="1" as="geometry">
            <mxPoint x="150" y="220" as="targetPoint" />
          </mxGeometry>
        </mxCell>
        <mxCell id="DmQVn9MVdQ3ZQFK17BQK-1" style="edgeStyle=orthogonalEdgeStyle;rounded=0;orthogonalLoop=1;jettySize=auto;html=1;exitX=0.5;exitY=1;exitDx=0;exitDy=0;entryX=0.5;entryY=0;entryDx=0;entryDy=0;fontFamily=Helvetica;fontSize=22;shape=link;" parent="Dc3M_s4ICyyyCjkiY2Pd-1" source="77kEgxCWMEARlSsbuSrW-7" target="DmQVn9MVdQ3ZQFK17BQK-0" edge="1">
          <mxGeometry relative="1" as="geometry" />
        </mxCell>
        <mxCell id="77olDVFnMIHP6Wvg-BnI-9" style="edgeStyle=orthogonalEdgeStyle;rounded=0;orthogonalLoop=1;jettySize=auto;html=1;exitX=1;exitY=0.5;exitDx=0;exitDy=0;entryX=0;entryY=0.5;entryDx=0;entryDy=0;fontFamily=Helvetica;fontSize=16;shape=link;" parent="Dc3M_s4ICyyyCjkiY2Pd-1" source="77kEgxCWMEARlSsbuSrW-7" target="77olDVFnMIHP6Wvg-BnI-8" edge="1">
          <mxGeometry relative="1" as="geometry" />
        </mxCell>
        <mxCell id="8HpmojKQyePM3A2M4YIC-3" style="edgeStyle=orthogonalEdgeStyle;rounded=0;orthogonalLoop=1;jettySize=auto;html=1;exitX=0;exitY=0;exitDx=0;exitDy=0;entryX=1;entryY=0.5;entryDx=0;entryDy=0;fontFamily=Helvetica;fontSize=16;" parent="Dc3M_s4ICyyyCjkiY2Pd-1" source="77kEgxCWMEARlSsbuSrW-7" target="77kEgxCWMEARlSsbuSrW-9" edge="1">
          <mxGeometry relative="1" as="geometry">
            <Array as="points">
              <mxPoint x="180" y="165" />
            </Array>
          </mxGeometry>
        </mxCell>
        <mxCell id="8HpmojKQyePM3A2M4YIC-5" style="edgeStyle=orthogonalEdgeStyle;rounded=0;orthogonalLoop=1;jettySize=auto;html=1;exitX=0.25;exitY=0;exitDx=0;exitDy=0;entryX=0.5;entryY=1;entryDx=0;entryDy=0;fontFamily=Helvetica;fontSize=16;" parent="Dc3M_s4ICyyyCjkiY2Pd-1" source="77kEgxCWMEARlSsbuSrW-7" target="8HpmojKQyePM3A2M4YIC-4" edge="1">
          <mxGeometry relative="1" as="geometry" />
        </mxCell>
        <mxCell id="8HpmojKQyePM3A2M4YIC-6" style="edgeStyle=orthogonalEdgeStyle;rounded=0;orthogonalLoop=1;jettySize=auto;html=1;exitX=0.5;exitY=0;exitDx=0;exitDy=0;fontFamily=Helvetica;fontSize=16;" parent="Dc3M_s4ICyyyCjkiY2Pd-1" source="77kEgxCWMEARlSsbuSrW-7" target="DmQVn9MVdQ3ZQFK17BQK-4" edge="1">
          <mxGeometry relative="1" as="geometry" />
        </mxCell>
        <mxCell id="8HpmojKQyePM3A2M4YIC-8" style="edgeStyle=orthogonalEdgeStyle;rounded=0;orthogonalLoop=1;jettySize=auto;html=1;exitX=0.75;exitY=0;exitDx=0;exitDy=0;entryX=0.5;entryY=1;entryDx=0;entryDy=0;fontFamily=Helvetica;fontSize=16;" parent="Dc3M_s4ICyyyCjkiY2Pd-1" source="77kEgxCWMEARlSsbuSrW-7" target="77olDVFnMIHP6Wvg-BnI-0" edge="1">
          <mxGeometry relative="1" as="geometry" />
        </mxCell>
        <mxCell id="8HpmojKQyePM3A2M4YIC-12" style="edgeStyle=orthogonalEdgeStyle;rounded=0;orthogonalLoop=1;jettySize=auto;html=1;exitX=1;exitY=0;exitDx=0;exitDy=0;entryX=0;entryY=0.5;entryDx=0;entryDy=0;fontFamily=Helvetica;fontSize=16;" parent="Dc3M_s4ICyyyCjkiY2Pd-1" source="77kEgxCWMEARlSsbuSrW-7" target="77olDVFnMIHP6Wvg-BnI-1" edge="1">
          <mxGeometry relative="1" as="geometry">
            <Array as="points">
              <mxPoint x="380" y="165" />
            </Array>
          </mxGeometry>
        </mxCell>
        <mxCell id="8HpmojKQyePM3A2M4YIC-46" style="edgeStyle=orthogonalEdgeStyle;shape=link;rounded=0;orthogonalLoop=1;jettySize=auto;html=1;exitX=0;exitY=1;exitDx=0;exitDy=0;entryX=0;entryY=0.5;entryDx=0;entryDy=0;fontFamily=Helvetica;fontSize=16;" parent="Dc3M_s4ICyyyCjkiY2Pd-1" source="77kEgxCWMEARlSsbuSrW-7" target="77olDVFnMIHP6Wvg-BnI-23" edge="1">
          <mxGeometry relative="1" as="geometry">
            <Array as="points">
              <mxPoint x="40" y="280" />
              <mxPoint x="40" y="710" />
              <mxPoint x="888" y="710" />
            </Array>
          </mxGeometry>
        </mxCell>
        <mxCell id="77kEgxCWMEARlSsbuSrW-7" value="&lt;h3 style=&quot;font-size: 18px&quot;&gt;&lt;font style=&quot;font-size: 18px&quot; face=&quot;Verdana&quot;&gt;COMUNIDAD&lt;/font&gt;&lt;br&gt;&lt;/h3&gt;" style="rounded=0;whiteSpace=wrap;html=1;fillColor=#d5e8d4;strokeColor=#82b366;gradientColor=#97d077;" parent="Dc3M_s4ICyyyCjkiY2Pd-1" vertex="1">
          <mxGeometry x="180" y="160" width="200" height="120" as="geometry" />
        </mxCell>
        <mxCell id="77kEgxCWMEARlSsbuSrW-9" value="&lt;b&gt;Nombre&lt;/b&gt;" style="ellipse;whiteSpace=wrap;html=1;fontFamily=Helvetica;fontSize=18;" parent="Dc3M_s4ICyyyCjkiY2Pd-1" vertex="1">
          <mxGeometry x="10" y="140" width="100" height="50" as="geometry" />
        </mxCell>
        <mxCell id="DmQVn9MVdQ3ZQFK17BQK-7" style="edgeStyle=orthogonalEdgeStyle;rounded=0;orthogonalLoop=1;jettySize=auto;html=1;exitX=0;exitY=0.5;exitDx=0;exitDy=0;entryX=1;entryY=0.5;entryDx=0;entryDy=0;fontFamily=Helvetica;fontSize=16;" parent="Dc3M_s4ICyyyCjkiY2Pd-1" source="77kEgxCWMEARlSsbuSrW-10" target="DmQVn9MVdQ3ZQFK17BQK-6" edge="1">
          <mxGeometry relative="1" as="geometry" />
        </mxCell>
        <mxCell id="DmQVn9MVdQ3ZQFK17BQK-14" style="edgeStyle=orthogonalEdgeStyle;rounded=0;orthogonalLoop=1;jettySize=auto;html=1;exitX=1;exitY=0.5;exitDx=0;exitDy=0;fontFamily=Helvetica;fontSize=16;" parent="Dc3M_s4ICyyyCjkiY2Pd-1" source="77kEgxCWMEARlSsbuSrW-10" target="DmQVn9MVdQ3ZQFK17BQK-13" edge="1">
          <mxGeometry relative="1" as="geometry" />
        </mxCell>
        <mxCell id="DmQVn9MVdQ3ZQFK17BQK-18" style="edgeStyle=orthogonalEdgeStyle;rounded=0;orthogonalLoop=1;jettySize=auto;html=1;exitX=0;exitY=1;exitDx=0;exitDy=0;entryX=1;entryY=0;entryDx=0;entryDy=0;fontFamily=Helvetica;fontSize=16;" parent="Dc3M_s4ICyyyCjkiY2Pd-1" source="77kEgxCWMEARlSsbuSrW-10" target="77kEgxCWMEARlSsbuSrW-19" edge="1">
          <mxGeometry relative="1" as="geometry" />
        </mxCell>
        <mxCell id="DmQVn9MVdQ3ZQFK17BQK-19" style="edgeStyle=orthogonalEdgeStyle;rounded=0;orthogonalLoop=1;jettySize=auto;html=1;exitX=0.5;exitY=1;exitDx=0;exitDy=0;entryX=0.5;entryY=0;entryDx=0;entryDy=0;fontFamily=Helvetica;fontSize=16;" parent="Dc3M_s4ICyyyCjkiY2Pd-1" source="77kEgxCWMEARlSsbuSrW-10" target="kA-5b1vaz4TY-NYoLiuw-0" edge="1">
          <mxGeometry relative="1" as="geometry" />
        </mxCell>
        <mxCell id="DmQVn9MVdQ3ZQFK17BQK-20" style="edgeStyle=orthogonalEdgeStyle;rounded=0;orthogonalLoop=1;jettySize=auto;html=1;exitX=1;exitY=1;exitDx=0;exitDy=0;entryX=0;entryY=0;entryDx=0;entryDy=0;fontFamily=Helvetica;fontSize=16;" parent="Dc3M_s4ICyyyCjkiY2Pd-1" source="77kEgxCWMEARlSsbuSrW-10" target="DmQVn9MVdQ3ZQFK17BQK-12" edge="1">
          <mxGeometry relative="1" as="geometry" />
        </mxCell>
        <mxCell id="77kEgxCWMEARlSsbuSrW-10" value="&lt;b&gt;Tipo de comunidad&lt;/b&gt;" style="ellipse;whiteSpace=wrap;html=1;fontFamily=Helvetica;fontSize=18;fillColor=#fff2cc;strokeColor=#d6b656;gradientColor=#ffd966;" parent="Dc3M_s4ICyyyCjkiY2Pd-1" vertex="1">
          <mxGeometry x="220" y="470" width="120" height="80" as="geometry" />
        </mxCell>
        <mxCell id="77olDVFnMIHP6Wvg-BnI-18" style="edgeStyle=orthogonalEdgeStyle;rounded=0;orthogonalLoop=1;jettySize=auto;html=1;exitX=0.5;exitY=0;exitDx=0;exitDy=0;entryX=0;entryY=0.5;entryDx=0;entryDy=0;fontFamily=Helvetica;fontSize=16;" parent="Dc3M_s4ICyyyCjkiY2Pd-1" source="77kEgxCWMEARlSsbuSrW-11" target="77olDVFnMIHP6Wvg-BnI-12" edge="1">
          <mxGeometry relative="1" as="geometry" />
        </mxCell>
        <mxCell id="77olDVFnMIHP6Wvg-BnI-19" style="edgeStyle=orthogonalEdgeStyle;rounded=0;orthogonalLoop=1;jettySize=auto;html=1;exitX=1;exitY=0.5;exitDx=0;exitDy=0;entryX=0;entryY=0.5;entryDx=0;entryDy=0;fontFamily=Helvetica;fontSize=16;" parent="Dc3M_s4ICyyyCjkiY2Pd-1" source="77kEgxCWMEARlSsbuSrW-11" target="77olDVFnMIHP6Wvg-BnI-13" edge="1">
          <mxGeometry relative="1" as="geometry" />
        </mxCell>
        <mxCell id="77olDVFnMIHP6Wvg-BnI-20" style="edgeStyle=orthogonalEdgeStyle;rounded=0;orthogonalLoop=1;jettySize=auto;html=1;exitX=0.5;exitY=1;exitDx=0;exitDy=0;entryX=0;entryY=0.5;entryDx=0;entryDy=0;fontFamily=Helvetica;fontSize=16;" parent="Dc3M_s4ICyyyCjkiY2Pd-1" source="77kEgxCWMEARlSsbuSrW-11" target="77olDVFnMIHP6Wvg-BnI-15" edge="1">
          <mxGeometry relative="1" as="geometry" />
        </mxCell>
        <mxCell id="77olDVFnMIHP6Wvg-BnI-22" style="edgeStyle=orthogonalEdgeStyle;rounded=0;orthogonalLoop=1;jettySize=auto;html=1;exitX=0;exitY=0;exitDx=0;exitDy=0;entryX=1;entryY=0.5;entryDx=0;entryDy=0;fontFamily=Helvetica;fontSize=16;" parent="Dc3M_s4ICyyyCjkiY2Pd-1" source="77kEgxCWMEARlSsbuSrW-11" target="77olDVFnMIHP6Wvg-BnI-21" edge="1">
          <mxGeometry relative="1" as="geometry" />
        </mxCell>
        <mxCell id="77kEgxCWMEARlSsbuSrW-11" value="&lt;b&gt;UbicaciÃ³n&lt;/b&gt;" style="ellipse;whiteSpace=wrap;html=1;fontFamily=Helvetica;fontSize=18;fillColor=#fff2cc;gradientColor=#ffd966;strokeColor=#d6b656;" parent="Dc3M_s4ICyyyCjkiY2Pd-1" vertex="1">
          <mxGeometry x="770" y="80" width="120" height="80" as="geometry" />
        </mxCell>
        <mxCell id="8HpmojKQyePM3A2M4YIC-29" style="edgeStyle=orthogonalEdgeStyle;rounded=0;orthogonalLoop=1;jettySize=auto;html=1;exitX=1;exitY=0.5;exitDx=0;exitDy=0;entryX=0;entryY=0.5;entryDx=0;entryDy=0;fontFamily=Helvetica;fontSize=16;" parent="Dc3M_s4ICyyyCjkiY2Pd-1" source="77kEgxCWMEARlSsbuSrW-12" target="77olDVFnMIHP6Wvg-BnI-29" edge="1">
          <mxGeometry relative="1" as="geometry" />
        </mxCell>
        <mxCell id="8HpmojKQyePM3A2M4YIC-39" style="edgeStyle=orthogonalEdgeStyle;rounded=0;orthogonalLoop=1;jettySize=auto;html=1;exitX=0;exitY=0.5;exitDx=0;exitDy=0;entryX=1;entryY=0.5;entryDx=0;entryDy=0;fontFamily=Helvetica;fontSize=16;shape=link;" parent="Dc3M_s4ICyyyCjkiY2Pd-1" source="77kEgxCWMEARlSsbuSrW-12" target="77olDVFnMIHP6Wvg-BnI-24" edge="1">
          <mxGeometry relative="1" as="geometry" />
        </mxCell>
        <mxCell id="8HpmojKQyePM3A2M4YIC-40" style="edgeStyle=orthogonalEdgeStyle;rounded=0;orthogonalLoop=1;jettySize=auto;html=1;exitX=0;exitY=0;exitDx=0;exitDy=0;entryX=0.5;entryY=1;entryDx=0;entryDy=0;fontFamily=Helvetica;fontSize=16;" parent="Dc3M_s4ICyyyCjkiY2Pd-1" source="77kEgxCWMEARlSsbuSrW-12" target="77olDVFnMIHP6Wvg-BnI-26" edge="1">
          <mxGeometry relative="1" as="geometry" />
        </mxCell>
        <mxCell id="8HpmojKQyePM3A2M4YIC-41" style="edgeStyle=orthogonalEdgeStyle;rounded=0;orthogonalLoop=1;jettySize=auto;html=1;exitX=0.5;exitY=0;exitDx=0;exitDy=0;entryX=0.5;entryY=1;entryDx=0;entryDy=0;fontFamily=Helvetica;fontSize=16;" parent="Dc3M_s4ICyyyCjkiY2Pd-1" source="77kEgxCWMEARlSsbuSrW-12" target="77olDVFnMIHP6Wvg-BnI-27" edge="1">
          <mxGeometry relative="1" as="geometry" />
        </mxCell>
        <mxCell id="8HpmojKQyePM3A2M4YIC-42" style="edgeStyle=orthogonalEdgeStyle;rounded=0;orthogonalLoop=1;jettySize=auto;html=1;exitX=1;exitY=0;exitDx=0;exitDy=0;entryX=0.5;entryY=1;entryDx=0;entryDy=0;fontFamily=Helvetica;fontSize=16;" parent="Dc3M_s4ICyyyCjkiY2Pd-1" source="77kEgxCWMEARlSsbuSrW-12" target="77olDVFnMIHP6Wvg-BnI-28" edge="1">
          <mxGeometry relative="1" as="geometry" />
        </mxCell>
        <mxCell id="8HpmojKQyePM3A2M4YIC-43" style="edgeStyle=orthogonalEdgeStyle;rounded=0;orthogonalLoop=1;jettySize=auto;html=1;exitX=0;exitY=1;exitDx=0;exitDy=0;entryX=0.5;entryY=0;entryDx=0;entryDy=0;fontFamily=Helvetica;fontSize=16;" parent="Dc3M_s4ICyyyCjkiY2Pd-1" source="77kEgxCWMEARlSsbuSrW-12" target="77olDVFnMIHP6Wvg-BnI-30" edge="1">
          <mxGeometry relative="1" as="geometry" />
        </mxCell>
        <mxCell id="8HpmojKQyePM3A2M4YIC-44" style="edgeStyle=orthogonalEdgeStyle;rounded=0;orthogonalLoop=1;jettySize=auto;html=1;exitX=0.5;exitY=1;exitDx=0;exitDy=0;entryX=0.5;entryY=0;entryDx=0;entryDy=0;fontFamily=Helvetica;fontSize=16;" parent="Dc3M_s4ICyyyCjkiY2Pd-1" source="77kEgxCWMEARlSsbuSrW-12" target="77olDVFnMIHP6Wvg-BnI-31" edge="1">
          <mxGeometry relative="1" as="geometry" />
        </mxCell>
        <mxCell id="8HpmojKQyePM3A2M4YIC-45" style="edgeStyle=orthogonalEdgeStyle;rounded=0;orthogonalLoop=1;jettySize=auto;html=1;exitX=1;exitY=1;exitDx=0;exitDy=0;entryX=0.5;entryY=0;entryDx=0;entryDy=0;fontFamily=Helvetica;fontSize=16;" parent="Dc3M_s4ICyyyCjkiY2Pd-1" source="77kEgxCWMEARlSsbuSrW-12" target="77olDVFnMIHP6Wvg-BnI-33" edge="1">
          <mxGeometry relative="1" as="geometry" />
        </mxCell>
        <mxCell id="77kEgxCWMEARlSsbuSrW-12" value="&lt;b&gt;Redes sociales&lt;/b&gt;" style="ellipse;whiteSpace=wrap;html=1;fontFamily=Helvetica;fontSize=18;fillColor=#fff2cc;gradientColor=#ffd966;strokeColor=#d6b656;" parent="Dc3M_s4ICyyyCjkiY2Pd-1" vertex="1">
          <mxGeometry x="1230" y="280" width="120" height="80" as="geometry" />
        </mxCell>
        <mxCell id="8HpmojKQyePM3A2M4YIC-48" style="edgeStyle=orthogonalEdgeStyle;rounded=0;orthogonalLoop=1;jettySize=auto;html=1;exitX=1;exitY=0.5;exitDx=0;exitDy=0;entryX=0;entryY=0.5;entryDx=0;entryDy=0;fontFamily=Helvetica;fontSize=16;" parent="Dc3M_s4ICyyyCjkiY2Pd-1" source="77kEgxCWMEARlSsbuSrW-14" target="77kEgxCWMEARlSsbuSrW-15" edge="1">
          <mxGeometry relative="1" as="geometry" />
        </mxCell>
        <mxCell id="77kEgxCWMEARlSsbuSrW-14" value="&lt;b&gt;Miembros de la comunidad&lt;/b&gt;" style="ellipse;whiteSpace=wrap;html=1;fontFamily=Helvetica;fontSize=18;fillColor=#e6d0de;gradientColor=#d5739d;strokeColor=#996185;" parent="Dc3M_s4ICyyyCjkiY2Pd-1" vertex="1">
          <mxGeometry x="1067.5" y="585" width="120" height="80" as="geometry" />
        </mxCell>
        <mxCell id="77kEgxCWMEARlSsbuSrW-15" value="Â id registro" style="ellipse;whiteSpace=wrap;fontFamily=Helvetica;fontSize=16;fontStyle=1;fillColor=#dae8fc;strokeColor=#6c8ebf;" parent="Dc3M_s4ICyyyCjkiY2Pd-1" vertex="1">
          <mxGeometry x="1260" y="595" width="80" height="60" as="geometry" />
        </mxCell>
        <mxCell id="77kEgxCWMEARlSsbuSrW-8" value="id" style="ellipse;whiteSpace=wrap;fontFamily=Helvetica;fontSize=16;fontStyle=1;fillColor=#dae8fc;strokeColor=#6c8ebf;" parent="Dc3M_s4ICyyyCjkiY2Pd-1" vertex="1">
          <mxGeometry x="80" y="195" width="70" height="50" as="geometry" />
        </mxCell>
        <mxCell id="77kEgxCWMEARlSsbuSrW-19" value="TecnolÃ³gica" style="ellipse;whiteSpace=wrap;html=1;fontFamily=Helvetica;fontSize=18;" parent="Dc3M_s4ICyyyCjkiY2Pd-1" vertex="1">
          <mxGeometry x="120" y="560" width="100" height="50" as="geometry" />
        </mxCell>
        <mxCell id="kA-5b1vaz4TY-NYoLiuw-0" value="Causa social" style="ellipse;whiteSpace=wrap;html=1;fontFamily=Helvetica;fontSize=18;" parent="Dc3M_s4ICyyyCjkiY2Pd-1" vertex="1">
          <mxGeometry x="230" y="600" width="100" height="50" as="geometry" />
        </mxCell>
        <mxCell id="DmQVn9MVdQ3ZQFK17BQK-2" style="edgeStyle=orthogonalEdgeStyle;rounded=0;orthogonalLoop=1;jettySize=auto;html=1;exitX=0.5;exitY=1;exitDx=0;exitDy=0;fontFamily=Helvetica;fontSize=22;shape=link;" parent="Dc3M_s4ICyyyCjkiY2Pd-1" source="DmQVn9MVdQ3ZQFK17BQK-0" target="77kEgxCWMEARlSsbuSrW-10" edge="1">
          <mxGeometry relative="1" as="geometry" />
        </mxCell>
        <mxCell id="DmQVn9MVdQ3ZQFK17BQK-0" value="&lt;b&gt;Tener&lt;/b&gt;" style="rhombus;whiteSpace=wrap;html=1;fontFamily=Helvetica;fontSize=18;fillColor=#b1ddf0;strokeColor=#10739e;" parent="Dc3M_s4ICyyyCjkiY2Pd-1" vertex="1">
          <mxGeometry x="235" y="330" width="90" height="80" as="geometry" />
        </mxCell>
        <mxCell id="DmQVn9MVdQ3ZQFK17BQK-4" value="&lt;b style=&quot;font-size: 16px;&quot;&gt;Id_tipocomunidad&lt;/b&gt;" style="ellipse;whiteSpace=wrap;html=1;fontFamily=Helvetica;fontSize=16;fillColor=#cce5ff;strokeColor=#36393d;" parent="Dc3M_s4ICyyyCjkiY2Pd-1" vertex="1">
          <mxGeometry x="207.5" y="25" width="145" height="70" as="geometry" />
        </mxCell>
        <mxCell id="DmQVn9MVdQ3ZQFK17BQK-6" value="id" style="ellipse;whiteSpace=wrap;fontFamily=Helvetica;fontSize=16;fontStyle=1;fillColor=#dae8fc;strokeColor=#6c8ebf;" parent="Dc3M_s4ICyyyCjkiY2Pd-1" vertex="1">
          <mxGeometry x="90" y="485" width="70" height="50" as="geometry" />
        </mxCell>
        <mxCell id="DmQVn9MVdQ3ZQFK17BQK-12" value="Aprendizaje" style="ellipse;whiteSpace=wrap;html=1;fontFamily=Helvetica;fontSize=18;" parent="Dc3M_s4ICyyyCjkiY2Pd-1" vertex="1">
          <mxGeometry x="340" y="570" width="110" height="50" as="geometry" />
        </mxCell>
        <mxCell id="DmQVn9MVdQ3ZQFK17BQK-16" style="edgeStyle=orthogonalEdgeStyle;rounded=0;orthogonalLoop=1;jettySize=auto;html=1;exitX=1;exitY=0.5;exitDx=0;exitDy=0;entryX=0;entryY=0.5;entryDx=0;entryDy=0;fontFamily=Helvetica;fontSize=16;" parent="Dc3M_s4ICyyyCjkiY2Pd-1" source="DmQVn9MVdQ3ZQFK17BQK-13" target="DmQVn9MVdQ3ZQFK17BQK-15" edge="1">
          <mxGeometry relative="1" as="geometry" />
        </mxCell>
        <mxCell id="DmQVn9MVdQ3ZQFK17BQK-13" value="id_otras" style="ellipse;whiteSpace=wrap;fontFamily=Helvetica;fontSize=16;fontStyle=1;fillColor=#dae8fc;strokeColor=#6c8ebf;" parent="Dc3M_s4ICyyyCjkiY2Pd-1" vertex="1">
          <mxGeometry x="410" y="485" width="70" height="50" as="geometry" />
        </mxCell>
        <mxCell id="DmQVn9MVdQ3ZQFK17BQK-22" style="edgeStyle=orthogonalEdgeStyle;rounded=0;orthogonalLoop=1;jettySize=auto;html=1;exitX=1;exitY=0.5;exitDx=0;exitDy=0;entryX=0;entryY=0.5;entryDx=0;entryDy=0;fontFamily=Helvetica;fontSize=16;" parent="Dc3M_s4ICyyyCjkiY2Pd-1" source="DmQVn9MVdQ3ZQFK17BQK-15" target="DmQVn9MVdQ3ZQFK17BQK-21" edge="1">
          <mxGeometry relative="1" as="geometry" />
        </mxCell>
        <mxCell id="DmQVn9MVdQ3ZQFK17BQK-15" value="&lt;b&gt;Contener&lt;/b&gt;" style="rhombus;whiteSpace=wrap;html=1;fontFamily=Helvetica;fontSize=18;fillColor=#b1ddf0;strokeColor=#10739e;" parent="Dc3M_s4ICyyyCjkiY2Pd-1" vertex="1">
          <mxGeometry x="520" y="470" width="90" height="80" as="geometry" />
        </mxCell>
        <mxCell id="DmQVn9MVdQ3ZQFK17BQK-21" value="Lista de las capturadas por el usuario" style="ellipse;whiteSpace=wrap;html=1;fontFamily=Helvetica;fontSize=18;" parent="Dc3M_s4ICyyyCjkiY2Pd-1" vertex="1">
          <mxGeometry x="650" y="470" width="160" height="80" as="geometry" />
        </mxCell>
        <mxCell id="77olDVFnMIHP6Wvg-BnI-0" value="&lt;b style=&quot;font-size: 16px&quot;&gt;Id_ubicaciÃ³n&lt;/b&gt;" style="ellipse;whiteSpace=wrap;html=1;fontFamily=Helvetica;fontSize=16;fillColor=#cce5ff;strokeColor=#36393d;" parent="Dc3M_s4ICyyyCjkiY2Pd-1" vertex="1">
          <mxGeometry x="360" y="70" width="110" height="50" as="geometry" />
        </mxCell>
        <mxCell id="77olDVFnMIHP6Wvg-BnI-1" value="&lt;b style=&quot;font-size: 16px&quot;&gt;Id_redes sociales&lt;br&gt;&lt;/b&gt;" style="ellipse;whiteSpace=wrap;html=1;fontFamily=Helvetica;fontSize=16;fillColor=#cce5ff;strokeColor=#36393d;" parent="Dc3M_s4ICyyyCjkiY2Pd-1" vertex="1">
          <mxGeometry x="450" y="130" width="145" height="70" as="geometry" />
        </mxCell>
        <mxCell id="77olDVFnMIHP6Wvg-BnI-10" style="edgeStyle=orthogonalEdgeStyle;shape=link;rounded=0;orthogonalLoop=1;jettySize=auto;html=1;exitX=0.5;exitY=0;exitDx=0;exitDy=0;entryX=0;entryY=0.5;entryDx=0;entryDy=0;fontFamily=Helvetica;fontSize=16;" parent="Dc3M_s4ICyyyCjkiY2Pd-1" source="77olDVFnMIHP6Wvg-BnI-8" target="77kEgxCWMEARlSsbuSrW-11" edge="1">
          <mxGeometry relative="1" as="geometry" />
        </mxCell>
        <mxCell id="77olDVFnMIHP6Wvg-BnI-8" value="&lt;b&gt;Tener&lt;/b&gt;" style="rhombus;whiteSpace=wrap;html=1;fontFamily=Helvetica;fontSize=18;fillColor=#b1ddf0;strokeColor=#10739e;" parent="Dc3M_s4ICyyyCjkiY2Pd-1" vertex="1">
          <mxGeometry x="640" y="180" width="90" height="80" as="geometry" />
        </mxCell>
        <mxCell id="77olDVFnMIHP6Wvg-BnI-12" value="PaÃ­s" style="ellipse;whiteSpace=wrap;html=1;fontFamily=Helvetica;fontSize=18;" parent="Dc3M_s4ICyyyCjkiY2Pd-1" vertex="1">
          <mxGeometry x="910" y="20" width="100" height="50" as="geometry" />
        </mxCell>
        <mxCell id="77olDVFnMIHP6Wvg-BnI-13" value="Estado" style="ellipse;whiteSpace=wrap;html=1;fontFamily=Helvetica;fontSize=18;" parent="Dc3M_s4ICyyyCjkiY2Pd-1" vertex="1">
          <mxGeometry x="910" y="95" width="100" height="50" as="geometry" />
        </mxCell>
        <mxCell id="77olDVFnMIHP6Wvg-BnI-15" value="C.P." style="ellipse;whiteSpace=wrap;html=1;fontFamily=Helvetica;fontSize=18;" parent="Dc3M_s4ICyyyCjkiY2Pd-1" vertex="1">
          <mxGeometry x="910" y="180" width="100" height="50" as="geometry" />
        </mxCell>
        <mxCell id="77olDVFnMIHP6Wvg-BnI-21" value="id" style="ellipse;whiteSpace=wrap;fontFamily=Helvetica;fontSize=16;fontStyle=1;fillColor=#dae8fc;strokeColor=#6c8ebf;" parent="Dc3M_s4ICyyyCjkiY2Pd-1" vertex="1">
          <mxGeometry x="700" y="40" width="70" height="50" as="geometry" />
        </mxCell>
        <mxCell id="8HpmojKQyePM3A2M4YIC-47" style="edgeStyle=orthogonalEdgeStyle;shape=link;rounded=0;orthogonalLoop=1;jettySize=auto;html=1;exitX=1;exitY=0.5;exitDx=0;exitDy=0;entryX=0;entryY=0.5;entryDx=0;entryDy=0;fontFamily=Helvetica;fontSize=16;" parent="Dc3M_s4ICyyyCjkiY2Pd-1" source="77olDVFnMIHP6Wvg-BnI-23" target="77kEgxCWMEARlSsbuSrW-14" edge="1">
          <mxGeometry relative="1" as="geometry" />
        </mxCell>
        <mxCell id="77olDVFnMIHP6Wvg-BnI-23" value="&lt;b&gt;Consultar&lt;/b&gt;" style="rhombus;whiteSpace=wrap;html=1;fontFamily=Helvetica;fontSize=18;fillColor=#b1ddf0;strokeColor=#10739e;" parent="Dc3M_s4ICyyyCjkiY2Pd-1" vertex="1">
          <mxGeometry x="887.5" y="585" width="90" height="80" as="geometry" />
        </mxCell>
        <mxCell id="77olDVFnMIHP6Wvg-BnI-26" value="Instagram" style="ellipse;whiteSpace=wrap;html=1;fontFamily=Helvetica;fontSize=18;" parent="Dc3M_s4ICyyyCjkiY2Pd-1" vertex="1">
          <mxGeometry x="1110" y="200" width="100" height="50" as="geometry" />
        </mxCell>
        <mxCell id="77olDVFnMIHP6Wvg-BnI-27" value="Facebook" style="ellipse;whiteSpace=wrap;html=1;fontFamily=Helvetica;fontSize=18;" parent="Dc3M_s4ICyyyCjkiY2Pd-1" vertex="1">
          <mxGeometry x="1240" y="180" width="100" height="50" as="geometry" />
        </mxCell>
        <mxCell id="77olDVFnMIHP6Wvg-BnI-28" value="Twitter" style="ellipse;whiteSpace=wrap;html=1;fontFamily=Helvetica;fontSize=18;" parent="Dc3M_s4ICyyyCjkiY2Pd-1" vertex="1">
          <mxGeometry x="1370" y="195" width="100" height="50" as="geometry" />
        </mxCell>
        <mxCell id="77olDVFnMIHP6Wvg-BnI-29" value="Youtube" style="ellipse;whiteSpace=wrap;html=1;fontFamily=Helvetica;fontSize=18;" parent="Dc3M_s4ICyyyCjkiY2Pd-1" vertex="1">
          <mxGeometry x="1470" y="295" width="100" height="50" as="geometry" />
        </mxCell>
        <mxCell id="77olDVFnMIHP6Wvg-BnI-30" value="Twitch" style="ellipse;whiteSpace=wrap;html=1;fontFamily=Helvetica;fontSize=18;" parent="Dc3M_s4ICyyyCjkiY2Pd-1" vertex="1">
          <mxGeometry x="1110" y="380" width="100" height="50" as="geometry" />
        </mxCell>
        <mxCell id="77olDVFnMIHP6Wvg-BnI-31" value="Discord" style="ellipse;whiteSpace=wrap;html=1;fontFamily=Helvetica;fontSize=18;" parent="Dc3M_s4ICyyyCjkiY2Pd-1" vertex="1">
          <mxGeometry x="1240" y="440" width="100" height="50" as="geometry" />
        </mxCell>
        <mxCell id="77olDVFnMIHP6Wvg-BnI-33" value="TikTok" style="ellipse;whiteSpace=wrap;html=1;fontFamily=Helvetica;fontSize=18;" parent="Dc3M_s4ICyyyCjkiY2Pd-1" vertex="1">
          <mxGeometry x="1370" y="390" width="100" height="50" as="geometry" />
        </mxCell>
        <mxCell id="8HpmojKQyePM3A2M4YIC-4" value="&lt;b&gt;Sitio Web&lt;/b&gt;" style="ellipse;whiteSpace=wrap;html=1;fontFamily=Helvetica;fontSize=18;" parent="Dc3M_s4ICyyyCjkiY2Pd-1" vertex="1">
          <mxGeometry x="85" y="70" width="100" height="50" as="geometry" />
        </mxCell>
        <mxCell id="8HpmojKQyePM3A2M4YIC-20" style="edgeStyle=orthogonalEdgeStyle;rounded=0;orthogonalLoop=1;jettySize=auto;html=1;exitX=0.5;exitY=1;exitDx=0;exitDy=0;fontFamily=Helvetica;fontSize=16;" parent="Dc3M_s4ICyyyCjkiY2Pd-1" source="77olDVFnMIHP6Wvg-BnI-29" target="77olDVFnMIHP6Wvg-BnI-29" edge="1">
          <mxGeometry relative="1" as="geometry" />
        </mxCell>
        <mxCell id="77olDVFnMIHP6Wvg-BnI-24" value="id" style="ellipse;whiteSpace=wrap;fontFamily=Helvetica;fontSize=16;fontStyle=1;fillColor=#dae8fc;strokeColor=#6c8ebf;" parent="Dc3M_s4ICyyyCjkiY2Pd-1" vertex="1">
          <mxGeometry x="1060" y="295" width="70" height="50" as="geometry" />
        </mxCell>
        <mxCell id="8HpmojKQyePM3A2M4YIC-37" value="" style="edgeStyle=orthogonalEdgeStyle;shape=link;rounded=0;orthogonalLoop=1;jettySize=auto;html=1;exitX=0.5;exitY=1;exitDx=0;exitDy=0;entryX=0;entryY=0.5;entryDx=0;entryDy=0;fontFamily=Helvetica;fontSize=16;endArrow=none;" parent="Dc3M_s4ICyyyCjkiY2Pd-1" source="77olDVFnMIHP6Wvg-BnI-8" target="77olDVFnMIHP6Wvg-BnI-24" edge="1">
          <mxGeometry relative="1" as="geometry">
            <mxPoint x="685" y="260" as="sourcePoint" />
            <mxPoint x="1230" y="320" as="targetPoint" />
          </mxGeometry>
        </mxCell>
        <mxCell id="Qmw7Io1Vlt0apg353jaX-1" style="edgeStyle=orthogonalEdgeStyle;rounded=0;orthogonalLoop=1;jettySize=auto;html=1;exitX=0;exitY=0.5;exitDx=0;exitDy=0;fontFamily=Helvetica;fontSize=16;shape=link;" parent="Dc3M_s4ICyyyCjkiY2Pd-1" source="Qmw7Io1Vlt0apg353jaX-0" edge="1">
          <mxGeometry relative="1" as="geometry">
            <mxPoint x="888" y="710" as="targetPoint" />
            <Array as="points">
              <mxPoint x="888" y="780" />
              <mxPoint x="888" y="780" />
            </Array>
          </mxGeometry>
        </mxCell>
        <mxCell id="0AOFVFsTV5FFEIGhlXAG-1" style="edgeStyle=orthogonalEdgeStyle;shape=link;rounded=0;orthogonalLoop=1;jettySize=auto;html=1;exitX=1;exitY=0.5;exitDx=0;exitDy=0;entryX=0;entryY=0.5;entryDx=0;entryDy=0;fontFamily=Helvetica;fontSize=16;" parent="Dc3M_s4ICyyyCjkiY2Pd-1" source="Qmw7Io1Vlt0apg353jaX-0" target="0AOFVFsTV5FFEIGhlXAG-0" edge="1">
          <mxGeometry relative="1" as="geometry" />
        </mxCell>
        <mxCell id="Qmw7Io1Vlt0apg353jaX-0" value="Organizar" style="rhombus;whiteSpace=wrap;html=1;fontFamily=Helvetica;fontSize=18;fillColor=#b1ddf0;strokeColor=#10739e;fontStyle=1" parent="Dc3M_s4ICyyyCjkiY2Pd-1" vertex="1">
          <mxGeometry x="887.5" y="770" width="90" height="80" as="geometry" />
        </mxCell>
        <mxCell id="0AOFVFsTV5FFEIGhlXAG-3" style="edgeStyle=orthogonalEdgeStyle;rounded=0;orthogonalLoop=1;jettySize=auto;html=1;exitX=1;exitY=0.5;exitDx=0;exitDy=0;entryX=0;entryY=0.5;entryDx=0;entryDy=0;fontFamily=Helvetica;fontSize=16;" parent="Dc3M_s4ICyyyCjkiY2Pd-1" source="0AOFVFsTV5FFEIGhlXAG-0" target="0AOFVFsTV5FFEIGhlXAG-2" edge="1">
          <mxGeometry relative="1" as="geometry" />
        </mxCell>
        <mxCell id="0AOFVFsTV5FFEIGhlXAG-0" value="&lt;b&gt;Evento&lt;/b&gt;" style="ellipse;whiteSpace=wrap;html=1;fontFamily=Helvetica;fontSize=18;fillColor=#d5e8d4;gradientColor=#97d077;strokeColor=#82b366;" parent="Dc3M_s4ICyyyCjkiY2Pd-1" vertex="1">
          <mxGeometry x="1067.5" y="770" width="120" height="80" as="geometry" />
        </mxCell>
        <mxCell id="0AOFVFsTV5FFEIGhlXAG-2" value="Â id evento" style="ellipse;whiteSpace=wrap;fontFamily=Helvetica;fontSize=16;fontStyle=1;fillColor=#dae8fc;strokeColor=#6c8ebf;" parent="Dc3M_s4ICyyyCjkiY2Pd-1" vertex="1">
          <mxGeometry x="1260" y="780" width="80" height="60" as="geometry" />
        </mxCell>
      </root>
    </mxGraphModel>
  </diagram>
  <diagram id="pV_Fsca1R5u-Pd2A6mAU" name="Page-4">
    <mxGraphModel dx="3238" dy="-322" grid="1" gridSize="10" guides="1" tooltips="1" connect="1" arrows="1" fold="1" page="1" pageScale="1" pageWidth="1920" pageHeight="1200" math="0" shadow="0">
      <root>
        <mxCell id="c-My_NbtffJbF_spMuTC-0" />
        <mxCell id="c-My_NbtffJbF_spMuTC-1" parent="c-My_NbtffJbF_spMuTC-0" />
        <mxCell id="olcFrwJNyPAZds3eR_9Y-4" style="edgeStyle=orthogonalEdgeStyle;rounded=0;orthogonalLoop=1;jettySize=auto;html=1;exitX=1;exitY=0.25;exitDx=0;exitDy=0;entryX=0;entryY=0.5;entryDx=0;entryDy=0;fontFamily=Helvetica;fontSize=16;" parent="c-My_NbtffJbF_spMuTC-1" source="HbaKzLCSj8KQY6kfSus8-5" target="HbaKzLCSj8KQY6kfSus8-26" edge="1">
          <mxGeometry relative="1" as="geometry" />
        </mxCell>
        <mxCell id="olcFrwJNyPAZds3eR_9Y-10" style="edgeStyle=orthogonalEdgeStyle;rounded=0;orthogonalLoop=1;jettySize=auto;html=1;exitX=1;exitY=0.5;exitDx=0;exitDy=0;entryX=0;entryY=0.5;entryDx=0;entryDy=0;fontFamily=Helvetica;fontSize=16;" parent="c-My_NbtffJbF_spMuTC-1" source="HbaKzLCSj8KQY6kfSus8-5" target="olcFrwJNyPAZds3eR_9Y-5" edge="1">
          <mxGeometry relative="1" as="geometry" />
        </mxCell>
        <mxCell id="olcFrwJNyPAZds3eR_9Y-11" style="edgeStyle=orthogonalEdgeStyle;rounded=0;orthogonalLoop=1;jettySize=auto;html=1;exitX=1;exitY=0.75;exitDx=0;exitDy=0;entryX=0;entryY=0.5;entryDx=0;entryDy=0;fontFamily=Helvetica;fontSize=16;" parent="c-My_NbtffJbF_spMuTC-1" source="HbaKzLCSj8KQY6kfSus8-5" target="olcFrwJNyPAZds3eR_9Y-6" edge="1">
          <mxGeometry relative="1" as="geometry" />
        </mxCell>
        <mxCell id="2AogQKv3Y3GuB-14GkWs-1" style="edgeStyle=orthogonalEdgeStyle;rounded=0;orthogonalLoop=1;jettySize=auto;html=1;exitX=0.5;exitY=1;exitDx=0;exitDy=0;fontFamily=Helvetica;fontSize=16;shape=link;" parent="c-My_NbtffJbF_spMuTC-1" source="HbaKzLCSj8KQY6kfSus8-5" target="vNkS2bhHUxfCD_ajz6NS-0" edge="1">
          <mxGeometry relative="1" as="geometry" />
        </mxCell>
        <mxCell id="gIDHHhIfixGZCMIbxY_w-26" style="edgeStyle=orthogonalEdgeStyle;rounded=0;orthogonalLoop=1;jettySize=auto;html=1;exitX=1;exitY=0;exitDx=0;exitDy=0;entryX=0;entryY=0.5;entryDx=0;entryDy=0;" parent="c-My_NbtffJbF_spMuTC-1" source="HbaKzLCSj8KQY6kfSus8-5" target="hPhZ-wQxsSwhRQ2moRAt-0" edge="1">
          <mxGeometry relative="1" as="geometry" />
        </mxCell>
        <mxCell id="gIDHHhIfixGZCMIbxY_w-27" style="edgeStyle=orthogonalEdgeStyle;rounded=0;orthogonalLoop=1;jettySize=auto;html=1;exitX=0.5;exitY=0;exitDx=0;exitDy=0;entryX=0.5;entryY=1;entryDx=0;entryDy=0;" parent="c-My_NbtffJbF_spMuTC-1" source="HbaKzLCSj8KQY6kfSus8-5" target="HbaKzLCSj8KQY6kfSus8-12" edge="1">
          <mxGeometry relative="1" as="geometry" />
        </mxCell>
        <mxCell id="dz397hYgZB1OtrOUyW_k-7" style="edgeStyle=orthogonalEdgeStyle;rounded=0;orthogonalLoop=1;jettySize=auto;html=1;exitX=0;exitY=0.5;exitDx=0;exitDy=0;entryX=1;entryY=0.5;entryDx=0;entryDy=0;shape=link;" parent="c-My_NbtffJbF_spMuTC-1" source="HbaKzLCSj8KQY6kfSus8-5" target="dz397hYgZB1OtrOUyW_k-0" edge="1">
          <mxGeometry relative="1" as="geometry" />
        </mxCell>
        <mxCell id="dz397hYgZB1OtrOUyW_k-10" style="edgeStyle=orthogonalEdgeStyle;rounded=0;orthogonalLoop=1;jettySize=auto;html=1;exitX=0.25;exitY=0;exitDx=0;exitDy=0;entryX=0.5;entryY=1;entryDx=0;entryDy=0;" parent="c-My_NbtffJbF_spMuTC-1" source="HbaKzLCSj8KQY6kfSus8-5" target="2AogQKv3Y3GuB-14GkWs-21" edge="1">
          <mxGeometry relative="1" as="geometry" />
        </mxCell>
        <mxCell id="dz397hYgZB1OtrOUyW_k-11" style="edgeStyle=orthogonalEdgeStyle;rounded=0;orthogonalLoop=1;jettySize=auto;html=1;exitX=0;exitY=0;exitDx=0;exitDy=0;entryX=1;entryY=1;entryDx=0;entryDy=0;" parent="c-My_NbtffJbF_spMuTC-1" source="HbaKzLCSj8KQY6kfSus8-5" target="HbaKzLCSj8KQY6kfSus8-7" edge="1">
          <mxGeometry relative="1" as="geometry">
            <Array as="points">
              <mxPoint x="-1300" y="1563" />
            </Array>
          </mxGeometry>
        </mxCell>
        <mxCell id="HbaKzLCSj8KQY6kfSus8-5" value="&lt;h3 style=&quot;font-size: 18px&quot;&gt;Registro&lt;br&gt;&lt;/h3&gt;" style="rounded=0;whiteSpace=wrap;html=1;fillColor=#d5e8d4;strokeColor=#82b366;gradientColor=#97d077;" parent="c-My_NbtffJbF_spMuTC-1" vertex="1">
          <mxGeometry x="-1300" y="1567.5" width="200" height="120" as="geometry" />
        </mxCell>
        <mxCell id="HbaKzLCSj8KQY6kfSus8-7" value="id" style="ellipse;whiteSpace=wrap;fontFamily=Helvetica;fontSize=16;fontStyle=1;fillColor=#dae8fc;strokeColor=#6c8ebf;" parent="c-My_NbtffJbF_spMuTC-1" vertex="1">
          <mxGeometry x="-1420" y="1520" width="60" height="50" as="geometry" />
        </mxCell>
        <mxCell id="HbaKzLCSj8KQY6kfSus8-12" value="&lt;b&gt;Id_persona&lt;/b&gt;" style="ellipse;whiteSpace=wrap;html=1;fontFamily=Helvetica;fontSize=18;fillColor=#cce5ff;strokeColor=#36393d;" parent="c-My_NbtffJbF_spMuTC-1" vertex="1">
          <mxGeometry x="-1260" y="1455" width="120" height="70" as="geometry" />
        </mxCell>
        <mxCell id="ml-UPWvE9Dw89ZrdAG-O-4" style="edgeStyle=orthogonalEdgeStyle;rounded=0;orthogonalLoop=1;jettySize=auto;html=1;exitX=0.5;exitY=0;exitDx=0;exitDy=0;entryX=0;entryY=0.5;entryDx=0;entryDy=0;fontFamily=Helvetica;fontSize=16;" parent="c-My_NbtffJbF_spMuTC-1" source="HbaKzLCSj8KQY6kfSus8-21" target="GRKyNWlX4r67CGoUuia0-0" edge="1">
          <mxGeometry relative="1" as="geometry" />
        </mxCell>
        <mxCell id="ml-UPWvE9Dw89ZrdAG-O-5" style="edgeStyle=orthogonalEdgeStyle;rounded=0;orthogonalLoop=1;jettySize=auto;html=1;exitX=1;exitY=0.5;exitDx=0;exitDy=0;entryX=0;entryY=0.5;entryDx=0;entryDy=0;fontFamily=Helvetica;fontSize=16;" parent="c-My_NbtffJbF_spMuTC-1" source="HbaKzLCSj8KQY6kfSus8-21" target="GRKyNWlX4r67CGoUuia0-1" edge="1">
          <mxGeometry relative="1" as="geometry" />
        </mxCell>
        <mxCell id="olcFrwJNyPAZds3eR_9Y-9" style="edgeStyle=orthogonalEdgeStyle;rounded=0;orthogonalLoop=1;jettySize=auto;html=1;exitX=0.5;exitY=1;exitDx=0;exitDy=0;entryX=0;entryY=0.5;entryDx=0;entryDy=0;fontFamily=Helvetica;fontSize=16;" parent="c-My_NbtffJbF_spMuTC-1" source="HbaKzLCSj8KQY6kfSus8-21" target="GRKyNWlX4r67CGoUuia0-2" edge="1">
          <mxGeometry relative="1" as="geometry" />
        </mxCell>
        <mxCell id="Vj4GWlRUJdI44U7UuhMz-2" style="edgeStyle=orthogonalEdgeStyle;rounded=0;orthogonalLoop=1;jettySize=auto;html=1;exitX=0;exitY=0;exitDx=0;exitDy=0;entryX=0.5;entryY=1;entryDx=0;entryDy=0;fontFamily=Helvetica;fontSize=16;" parent="c-My_NbtffJbF_spMuTC-1" source="HbaKzLCSj8KQY6kfSus8-21" target="Vj4GWlRUJdI44U7UuhMz-1" edge="1">
          <mxGeometry relative="1" as="geometry" />
        </mxCell>
        <mxCell id="HbaKzLCSj8KQY6kfSus8-21" value="&lt;b&gt;Por quÃ© medio&lt;/b&gt;" style="ellipse;whiteSpace=wrap;html=1;fontFamily=Helvetica;fontSize=18;fillColor=#ffff88;strokeColor=#36393d;" parent="c-My_NbtffJbF_spMuTC-1" vertex="1">
          <mxGeometry x="-690" y="1500" width="80" height="60" as="geometry" />
        </mxCell>
        <mxCell id="HbaKzLCSj8KQY6kfSus8-25" value="&amp;nbsp;" style="text;whiteSpace=wrap;html=1;fontSize=22;fontFamily=Helvetica;" parent="c-My_NbtffJbF_spMuTC-1" vertex="1">
          <mxGeometry x="-670" y="1702.5" width="30" height="40" as="geometry" />
        </mxCell>
        <mxCell id="HbaKzLCSj8KQY6kfSus8-26" value="Â id comunidad" style="ellipse;whiteSpace=wrap;fontFamily=Helvetica;fontSize=16;fontStyle=1;fillColor=#dae8fc;strokeColor=#6c8ebf;" parent="c-My_NbtffJbF_spMuTC-1" vertex="1">
          <mxGeometry x="-980" y="1497.5" width="80" height="60" as="geometry" />
        </mxCell>
        <mxCell id="ml-UPWvE9Dw89ZrdAG-O-14" style="edgeStyle=orthogonalEdgeStyle;rounded=0;orthogonalLoop=1;jettySize=auto;html=1;exitX=0.5;exitY=0;exitDx=0;exitDy=0;entryX=0;entryY=0.5;entryDx=0;entryDy=0;fontFamily=Helvetica;fontSize=16;" parent="c-My_NbtffJbF_spMuTC-1" source="X_hU_yw6foAO_4dLhboY-0" target="ml-UPWvE9Dw89ZrdAG-O-7" edge="1">
          <mxGeometry relative="1" as="geometry" />
        </mxCell>
        <mxCell id="ml-UPWvE9Dw89ZrdAG-O-16" style="edgeStyle=orthogonalEdgeStyle;rounded=0;orthogonalLoop=1;jettySize=auto;html=1;exitX=0.5;exitY=1;exitDx=0;exitDy=0;entryX=0;entryY=0.5;entryDx=0;entryDy=0;fontFamily=Helvetica;fontSize=16;" parent="c-My_NbtffJbF_spMuTC-1" source="X_hU_yw6foAO_4dLhboY-0" target="ml-UPWvE9Dw89ZrdAG-O-9" edge="1">
          <mxGeometry relative="1" as="geometry" />
        </mxCell>
        <mxCell id="olcFrwJNyPAZds3eR_9Y-16" style="edgeStyle=orthogonalEdgeStyle;rounded=0;orthogonalLoop=1;jettySize=auto;html=1;exitX=1;exitY=0.5;exitDx=0;exitDy=0;entryX=0;entryY=0.5;entryDx=0;entryDy=0;fontFamily=Helvetica;fontSize=16;" parent="c-My_NbtffJbF_spMuTC-1" source="X_hU_yw6foAO_4dLhboY-0" target="ml-UPWvE9Dw89ZrdAG-O-8" edge="1">
          <mxGeometry relative="1" as="geometry" />
        </mxCell>
        <mxCell id="Vj4GWlRUJdI44U7UuhMz-4" style="edgeStyle=orthogonalEdgeStyle;rounded=0;orthogonalLoop=1;jettySize=auto;html=1;exitX=0;exitY=0;exitDx=0;exitDy=0;entryX=0.5;entryY=1;entryDx=0;entryDy=0;fontFamily=Helvetica;fontSize=16;" parent="c-My_NbtffJbF_spMuTC-1" source="X_hU_yw6foAO_4dLhboY-0" target="Vj4GWlRUJdI44U7UuhMz-3" edge="1">
          <mxGeometry relative="1" as="geometry" />
        </mxCell>
        <mxCell id="X_hU_yw6foAO_4dLhboY-0" value="&lt;b&gt;Motivo uniÃ³n&lt;/b&gt;" style="ellipse;whiteSpace=wrap;html=1;fontFamily=Helvetica;fontSize=18;fillColor=#ffff88;strokeColor=#36393d;" parent="c-My_NbtffJbF_spMuTC-1" vertex="1">
          <mxGeometry x="-690" y="1762.5" width="80" height="60" as="geometry" />
        </mxCell>
        <mxCell id="gIDHHhIfixGZCMIbxY_w-18" style="edgeStyle=orthogonalEdgeStyle;rounded=0;orthogonalLoop=1;jettySize=auto;html=1;exitX=0.5;exitY=0;exitDx=0;exitDy=0;entryX=0;entryY=0.5;entryDx=0;entryDy=0;" parent="c-My_NbtffJbF_spMuTC-1" source="hPhZ-wQxsSwhRQ2moRAt-0" target="gIDHHhIfixGZCMIbxY_w-10" edge="1">
          <mxGeometry relative="1" as="geometry" />
        </mxCell>
        <mxCell id="gIDHHhIfixGZCMIbxY_w-19" style="edgeStyle=orthogonalEdgeStyle;rounded=0;orthogonalLoop=1;jettySize=auto;html=1;exitX=1;exitY=0.5;exitDx=0;exitDy=0;entryX=0;entryY=0.5;entryDx=0;entryDy=0;" parent="c-My_NbtffJbF_spMuTC-1" source="hPhZ-wQxsSwhRQ2moRAt-0" target="gIDHHhIfixGZCMIbxY_w-12" edge="1">
          <mxGeometry relative="1" as="geometry" />
        </mxCell>
        <mxCell id="hPhZ-wQxsSwhRQ2moRAt-0" value="&lt;b&gt;Id_ocupaciÃ³n&lt;/b&gt;" style="ellipse;whiteSpace=wrap;html=1;fontFamily=Helvetica;fontSize=18;fillColor=#cce5ff;strokeColor=#36393d;" parent="c-My_NbtffJbF_spMuTC-1" vertex="1">
          <mxGeometry x="-1000" y="1340" width="120" height="70" as="geometry" />
        </mxCell>
        <mxCell id="GRKyNWlX4r67CGoUuia0-0" value="OpciÃ³n 1" style="ellipse;whiteSpace=wrap;html=1;fontFamily=Helvetica;fontSize=18;" parent="c-My_NbtffJbF_spMuTC-1" vertex="1">
          <mxGeometry x="-570" y="1430" width="100" height="50" as="geometry" />
        </mxCell>
        <mxCell id="GRKyNWlX4r67CGoUuia0-1" value="OpciÃ³n 2" style="ellipse;whiteSpace=wrap;html=1;fontFamily=Helvetica;fontSize=18;" parent="c-My_NbtffJbF_spMuTC-1" vertex="1">
          <mxGeometry x="-570" y="1505" width="100" height="50" as="geometry" />
        </mxCell>
        <mxCell id="GRKyNWlX4r67CGoUuia0-2" value="id otras" style="ellipse;whiteSpace=wrap;html=1;fontFamily=Helvetica;fontSize=18;fillColor=#cce5ff;strokeColor=#36393d;" parent="c-My_NbtffJbF_spMuTC-1" vertex="1">
          <mxGeometry x="-570" y="1580" width="100" height="50" as="geometry" />
        </mxCell>
        <mxCell id="ml-UPWvE9Dw89ZrdAG-O-0" style="edgeStyle=orthogonalEdgeStyle;rounded=0;orthogonalLoop=1;jettySize=auto;html=1;entryX=0;entryY=0.5;entryDx=0;entryDy=0;fontFamily=Helvetica;fontSize=16;shape=link;" parent="c-My_NbtffJbF_spMuTC-1" target="ml-UPWvE9Dw89ZrdAG-O-2" edge="1">
          <mxGeometry relative="1" as="geometry">
            <mxPoint x="-470" y="1605" as="sourcePoint" />
          </mxGeometry>
        </mxCell>
        <mxCell id="ml-UPWvE9Dw89ZrdAG-O-1" style="edgeStyle=orthogonalEdgeStyle;rounded=0;orthogonalLoop=1;jettySize=auto;html=1;exitX=1;exitY=0.5;exitDx=0;exitDy=0;entryX=0;entryY=0.5;entryDx=0;entryDy=0;fontFamily=Helvetica;fontSize=16;" parent="c-My_NbtffJbF_spMuTC-1" source="ml-UPWvE9Dw89ZrdAG-O-2" target="ml-UPWvE9Dw89ZrdAG-O-3" edge="1">
          <mxGeometry relative="1" as="geometry" />
        </mxCell>
        <mxCell id="ml-UPWvE9Dw89ZrdAG-O-2" value="&lt;b&gt;Contener&lt;/b&gt;" style="rhombus;whiteSpace=wrap;html=1;fontFamily=Helvetica;fontSize=18;fillColor=#b1ddf0;strokeColor=#10739e;" parent="c-My_NbtffJbF_spMuTC-1" vertex="1">
          <mxGeometry x="-430" y="1565" width="90" height="80" as="geometry" />
        </mxCell>
        <mxCell id="ml-UPWvE9Dw89ZrdAG-O-3" value="Lista de las capturadas por el usuario" style="ellipse;whiteSpace=wrap;html=1;fontFamily=Helvetica;fontSize=18;" parent="c-My_NbtffJbF_spMuTC-1" vertex="1">
          <mxGeometry x="-300" y="1565" width="160" height="80" as="geometry" />
        </mxCell>
        <mxCell id="ml-UPWvE9Dw89ZrdAG-O-7" value="OpciÃ³n 1" style="ellipse;whiteSpace=wrap;html=1;fontFamily=Helvetica;fontSize=18;" parent="c-My_NbtffJbF_spMuTC-1" vertex="1">
          <mxGeometry x="-570" y="1677.5" width="100" height="50" as="geometry" />
        </mxCell>
        <mxCell id="ml-UPWvE9Dw89ZrdAG-O-8" value="OpciÃ³n 2" style="ellipse;whiteSpace=wrap;html=1;fontFamily=Helvetica;fontSize=18;" parent="c-My_NbtffJbF_spMuTC-1" vertex="1">
          <mxGeometry x="-570" y="1767.5" width="100" height="50" as="geometry" />
        </mxCell>
        <mxCell id="ml-UPWvE9Dw89ZrdAG-O-9" value="id otras" style="ellipse;whiteSpace=wrap;html=1;fontFamily=Helvetica;fontSize=18;fillColor=#cce5ff;strokeColor=#36393d;" parent="c-My_NbtffJbF_spMuTC-1" vertex="1">
          <mxGeometry x="-570" y="1862.5" width="100" height="50" as="geometry" />
        </mxCell>
        <mxCell id="ml-UPWvE9Dw89ZrdAG-O-10" style="edgeStyle=orthogonalEdgeStyle;rounded=0;orthogonalLoop=1;jettySize=auto;html=1;entryX=0;entryY=0.5;entryDx=0;entryDy=0;fontFamily=Helvetica;fontSize=16;shape=link;exitX=1;exitY=0.5;exitDx=0;exitDy=0;" parent="c-My_NbtffJbF_spMuTC-1" source="ml-UPWvE9Dw89ZrdAG-O-9" target="ml-UPWvE9Dw89ZrdAG-O-12" edge="1">
          <mxGeometry relative="1" as="geometry">
            <mxPoint x="-470" y="1852.5" as="sourcePoint" />
          </mxGeometry>
        </mxCell>
        <mxCell id="ml-UPWvE9Dw89ZrdAG-O-11" style="edgeStyle=orthogonalEdgeStyle;rounded=0;orthogonalLoop=1;jettySize=auto;html=1;exitX=1;exitY=0.5;exitDx=0;exitDy=0;entryX=0;entryY=0.5;entryDx=0;entryDy=0;fontFamily=Helvetica;fontSize=16;" parent="c-My_NbtffJbF_spMuTC-1" source="ml-UPWvE9Dw89ZrdAG-O-12" target="ml-UPWvE9Dw89ZrdAG-O-13" edge="1">
          <mxGeometry relative="1" as="geometry" />
        </mxCell>
        <mxCell id="ml-UPWvE9Dw89ZrdAG-O-12" value="&lt;b&gt;Contener&lt;/b&gt;" style="rhombus;whiteSpace=wrap;html=1;fontFamily=Helvetica;fontSize=18;fillColor=#b1ddf0;strokeColor=#10739e;" parent="c-My_NbtffJbF_spMuTC-1" vertex="1">
          <mxGeometry x="-430" y="1847.5" width="90" height="80" as="geometry" />
        </mxCell>
        <mxCell id="ml-UPWvE9Dw89ZrdAG-O-13" value="Lista de las capturadas por el usuario" style="ellipse;whiteSpace=wrap;html=1;fontFamily=Helvetica;fontSize=18;" parent="c-My_NbtffJbF_spMuTC-1" vertex="1">
          <mxGeometry x="-300" y="1847.5" width="160" height="80" as="geometry" />
        </mxCell>
        <mxCell id="QjysUjvfOG8rz5QFRjRF-4" style="edgeStyle=orthogonalEdgeStyle;shape=link;rounded=0;orthogonalLoop=1;jettySize=auto;html=1;exitX=1;exitY=0.5;exitDx=0;exitDy=0;entryX=0;entryY=0.5;entryDx=0;entryDy=0;" edge="1" parent="c-My_NbtffJbF_spMuTC-1" source="olcFrwJNyPAZds3eR_9Y-5" target="olcFrwJNyPAZds3eR_9Y-13">
          <mxGeometry relative="1" as="geometry">
            <Array as="points">
              <mxPoint x="-860" y="1628" />
              <mxPoint x="-860" y="1679" />
            </Array>
          </mxGeometry>
        </mxCell>
        <mxCell id="olcFrwJNyPAZds3eR_9Y-5" value="id medio comunidad" style="ellipse;whiteSpace=wrap;fontFamily=Helvetica;fontSize=16;fontStyle=1;fillColor=#f8cecc;strokeColor=#b85450;" parent="c-My_NbtffJbF_spMuTC-1" vertex="1">
          <mxGeometry x="-980" y="1597.5" width="80" height="60" as="geometry" />
        </mxCell>
        <mxCell id="QjysUjvfOG8rz5QFRjRF-12" style="edgeStyle=orthogonalEdgeStyle;shape=link;rounded=0;orthogonalLoop=1;jettySize=auto;html=1;exitX=1;exitY=0.5;exitDx=0;exitDy=0;" edge="1" parent="c-My_NbtffJbF_spMuTC-1" source="olcFrwJNyPAZds3eR_9Y-6">
          <mxGeometry relative="1" as="geometry">
            <mxPoint x="-860" y="1680" as="targetPoint" />
          </mxGeometry>
        </mxCell>
        <mxCell id="olcFrwJNyPAZds3eR_9Y-6" value="Â id motivo comunidad" style="ellipse;whiteSpace=wrap;fontFamily=Helvetica;fontSize=16;fontStyle=1;fillColor=#f8cecc;strokeColor=#b85450;" parent="c-My_NbtffJbF_spMuTC-1" vertex="1">
          <mxGeometry x="-980" y="1697.5" width="80" height="60" as="geometry" />
        </mxCell>
        <mxCell id="QjysUjvfOG8rz5QFRjRF-6" style="edgeStyle=orthogonalEdgeStyle;shape=link;rounded=0;orthogonalLoop=1;jettySize=auto;html=1;exitX=0.5;exitY=0;exitDx=0;exitDy=0;entryX=0;entryY=0.5;entryDx=0;entryDy=0;" edge="1" parent="c-My_NbtffJbF_spMuTC-1" source="olcFrwJNyPAZds3eR_9Y-13" target="HbaKzLCSj8KQY6kfSus8-21">
          <mxGeometry relative="1" as="geometry" />
        </mxCell>
        <mxCell id="QjysUjvfOG8rz5QFRjRF-10" style="edgeStyle=orthogonalEdgeStyle;shape=link;rounded=0;orthogonalLoop=1;jettySize=auto;html=1;exitX=0.5;exitY=1;exitDx=0;exitDy=0;entryX=0;entryY=0.5;entryDx=0;entryDy=0;" edge="1" parent="c-My_NbtffJbF_spMuTC-1" source="olcFrwJNyPAZds3eR_9Y-13" target="X_hU_yw6foAO_4dLhboY-0">
          <mxGeometry relative="1" as="geometry" />
        </mxCell>
        <mxCell id="olcFrwJNyPAZds3eR_9Y-13" value="&lt;b&gt;Tener&lt;/b&gt;" style="rhombus;whiteSpace=wrap;html=1;fontFamily=Helvetica;fontSize=18;fillColor=#b1ddf0;strokeColor=#10739e;" parent="c-My_NbtffJbF_spMuTC-1" vertex="1">
          <mxGeometry x="-835" y="1638.75" width="90" height="80" as="geometry" />
        </mxCell>
        <mxCell id="2AogQKv3Y3GuB-14GkWs-2" style="edgeStyle=orthogonalEdgeStyle;rounded=0;orthogonalLoop=1;jettySize=auto;html=1;exitX=0.5;exitY=1;exitDx=0;exitDy=0;entryX=0.5;entryY=0;entryDx=0;entryDy=0;fontFamily=Helvetica;fontSize=16;shape=link;" parent="c-My_NbtffJbF_spMuTC-1" source="vNkS2bhHUxfCD_ajz6NS-0" target="2AogQKv3Y3GuB-14GkWs-0" edge="1">
          <mxGeometry relative="1" as="geometry" />
        </mxCell>
        <mxCell id="vNkS2bhHUxfCD_ajz6NS-0" value="&lt;b&gt;Tener&lt;/b&gt;" style="rhombus;whiteSpace=wrap;html=1;fontFamily=Helvetica;fontSize=18;fillColor=#b1ddf0;strokeColor=#10739e;" parent="c-My_NbtffJbF_spMuTC-1" vertex="1">
          <mxGeometry x="-1245" y="1782.5" width="90" height="80" as="geometry" />
        </mxCell>
        <mxCell id="Vj4GWlRUJdI44U7UuhMz-1" value="id" style="ellipse;whiteSpace=wrap;fontFamily=Helvetica;fontSize=16;fontStyle=1;fillColor=#f8cecc;strokeColor=#b85450;" parent="c-My_NbtffJbF_spMuTC-1" vertex="1">
          <mxGeometry x="-730" y="1440" width="60" height="50" as="geometry" />
        </mxCell>
        <mxCell id="Vj4GWlRUJdI44U7UuhMz-3" value="id" style="ellipse;whiteSpace=wrap;fontFamily=Helvetica;fontSize=16;fontStyle=1;fillColor=#f8cecc;strokeColor=#b85450;" parent="c-My_NbtffJbF_spMuTC-1" vertex="1">
          <mxGeometry x="-730" y="1702.5" width="60" height="50" as="geometry" />
        </mxCell>
        <mxCell id="75tTBtafNKYDJxgObY1L-1" style="edgeStyle=orthogonalEdgeStyle;rounded=0;orthogonalLoop=1;jettySize=auto;html=1;exitX=0.5;exitY=1;exitDx=0;exitDy=0;entryX=0.5;entryY=0;entryDx=0;entryDy=0;shape=link;" parent="c-My_NbtffJbF_spMuTC-1" source="2AogQKv3Y3GuB-14GkWs-0" target="75tTBtafNKYDJxgObY1L-0" edge="1">
          <mxGeometry relative="1" as="geometry" />
        </mxCell>
        <mxCell id="F6j6g9SN2grLB9rACUoZ-10" style="edgeStyle=orthogonalEdgeStyle;rounded=0;orthogonalLoop=1;jettySize=auto;html=1;exitX=0;exitY=0.5;exitDx=0;exitDy=0;entryX=1;entryY=0.5;entryDx=0;entryDy=0;" parent="c-My_NbtffJbF_spMuTC-1" source="2AogQKv3Y3GuB-14GkWs-0" target="G6O49KIyMTGEdZo_komH-1" edge="1">
          <mxGeometry relative="1" as="geometry" />
        </mxCell>
        <mxCell id="F6j6g9SN2grLB9rACUoZ-38" style="edgeStyle=orthogonalEdgeStyle;rounded=0;orthogonalLoop=1;jettySize=auto;html=1;exitX=1;exitY=0.5;exitDx=0;exitDy=0;entryX=0;entryY=0.5;entryDx=0;entryDy=0;" parent="c-My_NbtffJbF_spMuTC-1" source="2AogQKv3Y3GuB-14GkWs-0" target="F6j6g9SN2grLB9rACUoZ-37" edge="1">
          <mxGeometry relative="1" as="geometry" />
        </mxCell>
        <mxCell id="2AogQKv3Y3GuB-14GkWs-0" value="&lt;b&gt;Persona&lt;/b&gt; " style="ellipse;whiteSpace=wrap;html=1;fontFamily=Helvetica;fontSize=18;fillColor=#fff2cc;strokeColor=#d6b656;gradientColor=#ffd966;" parent="c-My_NbtffJbF_spMuTC-1" vertex="1">
          <mxGeometry x="-1260" y="1890" width="120" height="80" as="geometry" />
        </mxCell>
        <mxCell id="F6j6g9SN2grLB9rACUoZ-28" style="edgeStyle=orthogonalEdgeStyle;rounded=0;orthogonalLoop=1;jettySize=auto;html=1;exitX=0;exitY=0.5;exitDx=0;exitDy=0;entryX=0.5;entryY=0;entryDx=0;entryDy=0;" parent="c-My_NbtffJbF_spMuTC-1" source="2AogQKv3Y3GuB-14GkWs-3" target="2AogQKv3Y3GuB-14GkWs-8" edge="1">
          <mxGeometry relative="1" as="geometry" />
        </mxCell>
        <mxCell id="F6j6g9SN2grLB9rACUoZ-29" style="edgeStyle=orthogonalEdgeStyle;rounded=0;orthogonalLoop=1;jettySize=auto;html=1;exitX=0;exitY=1;exitDx=0;exitDy=0;entryX=0.5;entryY=0;entryDx=0;entryDy=0;" parent="c-My_NbtffJbF_spMuTC-1" source="2AogQKv3Y3GuB-14GkWs-3" target="2AogQKv3Y3GuB-14GkWs-4" edge="1">
          <mxGeometry relative="1" as="geometry">
            <Array as="points">
              <mxPoint x="-1229" y="2265" />
              <mxPoint x="-1290" y="2265" />
            </Array>
          </mxGeometry>
        </mxCell>
        <mxCell id="F6j6g9SN2grLB9rACUoZ-30" style="edgeStyle=orthogonalEdgeStyle;rounded=0;orthogonalLoop=1;jettySize=auto;html=1;exitX=0.5;exitY=1;exitDx=0;exitDy=0;entryX=0.5;entryY=0;entryDx=0;entryDy=0;" parent="c-My_NbtffJbF_spMuTC-1" source="2AogQKv3Y3GuB-14GkWs-3" edge="1">
          <mxGeometry relative="1" as="geometry">
            <mxPoint x="-1200" y="2325" as="targetPoint" />
          </mxGeometry>
        </mxCell>
        <mxCell id="F6j6g9SN2grLB9rACUoZ-31" style="edgeStyle=orthogonalEdgeStyle;rounded=0;orthogonalLoop=1;jettySize=auto;html=1;exitX=1;exitY=1;exitDx=0;exitDy=0;entryX=0.5;entryY=0;entryDx=0;entryDy=0;" parent="c-My_NbtffJbF_spMuTC-1" source="2AogQKv3Y3GuB-14GkWs-3" target="2AogQKv3Y3GuB-14GkWs-7" edge="1">
          <mxGeometry relative="1" as="geometry">
            <Array as="points">
              <mxPoint x="-1171" y="2265" />
              <mxPoint x="-1110" y="2265" />
            </Array>
          </mxGeometry>
        </mxCell>
        <mxCell id="F6j6g9SN2grLB9rACUoZ-32" style="edgeStyle=orthogonalEdgeStyle;rounded=0;orthogonalLoop=1;jettySize=auto;html=1;exitX=1;exitY=0.5;exitDx=0;exitDy=0;entryX=0.5;entryY=0;entryDx=0;entryDy=0;" parent="c-My_NbtffJbF_spMuTC-1" source="2AogQKv3Y3GuB-14GkWs-3" target="2AogQKv3Y3GuB-14GkWs-6" edge="1">
          <mxGeometry relative="1" as="geometry" />
        </mxCell>
        <mxCell id="2AogQKv3Y3GuB-14GkWs-3" value="&lt;b&gt;Nombre&lt;/b&gt;" style="ellipse;whiteSpace=wrap;html=1;fontFamily=Helvetica;fontSize=18;fillColor=#fff2cc;strokeColor=#d6b656;gradientColor=#ffd966;" parent="c-My_NbtffJbF_spMuTC-1" vertex="1">
          <mxGeometry x="-1240" y="2140" width="80" height="50" as="geometry" />
        </mxCell>
        <mxCell id="2AogQKv3Y3GuB-14GkWs-4" value="Nombre 1" style="ellipse;whiteSpace=wrap;html=1;fontFamily=Helvetica;fontSize=18;" parent="c-My_NbtffJbF_spMuTC-1" vertex="1">
          <mxGeometry x="-1340" y="2275" width="100" height="50" as="geometry" />
        </mxCell>
        <mxCell id="2AogQKv3Y3GuB-14GkWs-5" value="Nombre 2" style="ellipse;whiteSpace=wrap;html=1;fontFamily=Helvetica;fontSize=18;" parent="c-My_NbtffJbF_spMuTC-1" vertex="1">
          <mxGeometry x="-1250" y="2325" width="100" height="50" as="geometry" />
        </mxCell>
        <mxCell id="2AogQKv3Y3GuB-14GkWs-6" value="Apellido 1" style="ellipse;whiteSpace=wrap;html=1;fontFamily=Helvetica;fontSize=18;" parent="c-My_NbtffJbF_spMuTC-1" vertex="1">
          <mxGeometry x="-1120" y="2205" width="100" height="50" as="geometry" />
        </mxCell>
        <mxCell id="2AogQKv3Y3GuB-14GkWs-7" value="Apellido 2" style="ellipse;whiteSpace=wrap;html=1;fontFamily=Helvetica;fontSize=18;" parent="c-My_NbtffJbF_spMuTC-1" vertex="1">
          <mxGeometry x="-1160" y="2275" width="100" height="50" as="geometry" />
        </mxCell>
        <mxCell id="2AogQKv3Y3GuB-14GkWs-8" value="Alias =!" style="ellipse;whiteSpace=wrap;html=1;fontFamily=Helvetica;fontSize=18;" parent="c-My_NbtffJbF_spMuTC-1" vertex="1">
          <mxGeometry x="-1350" y="2210" width="70" height="40" as="geometry" />
        </mxCell>
        <mxCell id="2AogQKv3Y3GuB-14GkWs-21" value="Alias" style="ellipse;whiteSpace=wrap;html=1;fontFamily=Helvetica;fontSize=18;" parent="c-My_NbtffJbF_spMuTC-1" vertex="1">
          <mxGeometry x="-1380" y="1465" width="100" height="50" as="geometry" />
        </mxCell>
        <mxCell id="F6j6g9SN2grLB9rACUoZ-34" style="edgeStyle=orthogonalEdgeStyle;rounded=0;orthogonalLoop=1;jettySize=auto;html=1;exitX=0;exitY=0.5;exitDx=0;exitDy=0;entryX=0.5;entryY=0;entryDx=0;entryDy=0;" parent="c-My_NbtffJbF_spMuTC-1" source="G6O49KIyMTGEdZo_komH-0" target="F6j6g9SN2grLB9rACUoZ-0" edge="1">
          <mxGeometry relative="1" as="geometry" />
        </mxCell>
        <mxCell id="F6j6g9SN2grLB9rACUoZ-35" style="edgeStyle=orthogonalEdgeStyle;rounded=0;orthogonalLoop=1;jettySize=auto;html=1;entryX=0.5;entryY=0;entryDx=0;entryDy=0;" parent="c-My_NbtffJbF_spMuTC-1" target="F6j6g9SN2grLB9rACUoZ-1" edge="1">
          <mxGeometry relative="1" as="geometry">
            <mxPoint x="-790" y="2150" as="sourcePoint" />
          </mxGeometry>
        </mxCell>
        <mxCell id="F6j6g9SN2grLB9rACUoZ-36" style="edgeStyle=orthogonalEdgeStyle;rounded=0;orthogonalLoop=1;jettySize=auto;html=1;exitX=1;exitY=0.5;exitDx=0;exitDy=0;entryX=0.5;entryY=0;entryDx=0;entryDy=0;" parent="c-My_NbtffJbF_spMuTC-1" source="G6O49KIyMTGEdZo_komH-0" target="F6j6g9SN2grLB9rACUoZ-2" edge="1">
          <mxGeometry relative="1" as="geometry" />
        </mxCell>
        <mxCell id="G6O49KIyMTGEdZo_komH-0" value="&lt;b&gt;DirecciÃ³n&lt;/b&gt;" style="ellipse;whiteSpace=wrap;html=1;fontFamily=Helvetica;fontSize=18;fillColor=#fff2cc;strokeColor=#d6b656;gradientColor=#ffd966;" parent="c-My_NbtffJbF_spMuTC-1" vertex="1">
          <mxGeometry x="-840" y="2140" width="90" height="50" as="geometry" />
        </mxCell>
        <mxCell id="G6O49KIyMTGEdZo_komH-1" value="id" style="ellipse;whiteSpace=wrap;fontFamily=Helvetica;fontSize=16;fontStyle=1;fillColor=#dae8fc;strokeColor=#6c8ebf;" parent="c-My_NbtffJbF_spMuTC-1" vertex="1">
          <mxGeometry x="-1350" y="1905" width="60" height="50" as="geometry" />
        </mxCell>
        <mxCell id="75tTBtafNKYDJxgObY1L-2" style="edgeStyle=orthogonalEdgeStyle;shape=link;rounded=0;orthogonalLoop=1;jettySize=auto;html=1;exitX=0;exitY=0.5;exitDx=0;exitDy=0;entryX=0.5;entryY=0;entryDx=0;entryDy=0;startArrow=none;" parent="c-My_NbtffJbF_spMuTC-1" source="2AogQKv3Y3GuB-14GkWs-19" target="2AogQKv3Y3GuB-14GkWs-3" edge="1">
          <mxGeometry relative="1" as="geometry" />
        </mxCell>
        <mxCell id="F6j6g9SN2grLB9rACUoZ-18" style="edgeStyle=orthogonalEdgeStyle;rounded=0;orthogonalLoop=1;jettySize=auto;html=1;exitX=1;exitY=0.5;exitDx=0;exitDy=0;entryX=0.5;entryY=0;entryDx=0;entryDy=0;shape=link;startArrow=none;" parent="c-My_NbtffJbF_spMuTC-1" source="F6j6g9SN2grLB9rACUoZ-6" target="G6O49KIyMTGEdZo_komH-0" edge="1">
          <mxGeometry relative="1" as="geometry" />
        </mxCell>
        <mxCell id="g2jBpEk-3GEPoV0dHoBr-37" style="edgeStyle=orthogonalEdgeStyle;rounded=0;orthogonalLoop=1;jettySize=auto;html=1;entryX=0;entryY=0.5;entryDx=0;entryDy=0;shape=link;startArrow=none;" parent="c-My_NbtffJbF_spMuTC-1" source="g2jBpEk-3GEPoV0dHoBr-41" target="g2jBpEk-3GEPoV0dHoBr-26" edge="1">
          <mxGeometry relative="1" as="geometry">
            <mxPoint x="-510.77" y="2170" as="sourcePoint" />
          </mxGeometry>
        </mxCell>
        <mxCell id="QjysUjvfOG8rz5QFRjRF-2" style="edgeStyle=orthogonalEdgeStyle;shape=link;rounded=0;orthogonalLoop=1;jettySize=auto;html=1;exitX=1;exitY=0.5;exitDx=0;exitDy=0;entryX=0.5;entryY=0;entryDx=0;entryDy=0;" edge="1" parent="c-My_NbtffJbF_spMuTC-1" source="75tTBtafNKYDJxgObY1L-0" target="g2jBpEk-3GEPoV0dHoBr-41">
          <mxGeometry relative="1" as="geometry" />
        </mxCell>
        <mxCell id="75tTBtafNKYDJxgObY1L-0" value="Contener" style="rhombus;whiteSpace=wrap;html=1;fontFamily=Helvetica;fontSize=18;fillColor=#b1ddf0;strokeColor=#10739e;" parent="c-My_NbtffJbF_spMuTC-1" vertex="1">
          <mxGeometry x="-1020" y="2030" width="90" height="80" as="geometry" />
        </mxCell>
        <mxCell id="F6j6g9SN2grLB9rACUoZ-0" value="PaÃ­s" style="ellipse;whiteSpace=wrap;html=1;fontFamily=Helvetica;fontSize=18;" parent="c-My_NbtffJbF_spMuTC-1" vertex="1">
          <mxGeometry x="-960" y="2205" width="100" height="50" as="geometry" />
        </mxCell>
        <mxCell id="F6j6g9SN2grLB9rACUoZ-1" value="Estado" style="ellipse;whiteSpace=wrap;html=1;fontFamily=Helvetica;fontSize=18;" parent="c-My_NbtffJbF_spMuTC-1" vertex="1">
          <mxGeometry x="-840" y="2255" width="100" height="50" as="geometry" />
        </mxCell>
        <mxCell id="F6j6g9SN2grLB9rACUoZ-2" value="C.P." style="ellipse;whiteSpace=wrap;html=1;fontFamily=Helvetica;fontSize=18;" parent="c-My_NbtffJbF_spMuTC-1" vertex="1">
          <mxGeometry x="-730" y="2210" width="100" height="50" as="geometry" />
        </mxCell>
        <mxCell id="F6j6g9SN2grLB9rACUoZ-37" value="Email" style="ellipse;whiteSpace=wrap;html=1;fontFamily=Helvetica;fontSize=18;" parent="c-My_NbtffJbF_spMuTC-1" vertex="1">
          <mxGeometry x="-1110" y="1905" width="100" height="50" as="geometry" />
        </mxCell>
        <mxCell id="g2jBpEk-3GEPoV0dHoBr-18" style="edgeStyle=orthogonalEdgeStyle;rounded=0;orthogonalLoop=1;jettySize=auto;html=1;exitX=1;exitY=0.5;exitDx=0;exitDy=0;entryX=0;entryY=0.5;entryDx=0;entryDy=0;fontFamily=Helvetica;fontSize=16;" parent="c-My_NbtffJbF_spMuTC-1" source="g2jBpEk-3GEPoV0dHoBr-26" edge="1">
          <mxGeometry relative="1" as="geometry">
            <mxPoint x="-190.76999999999998" y="2170" as="targetPoint" />
          </mxGeometry>
        </mxCell>
        <mxCell id="g2jBpEk-3GEPoV0dHoBr-20" style="edgeStyle=orthogonalEdgeStyle;rounded=0;orthogonalLoop=1;jettySize=auto;html=1;exitX=0;exitY=0;exitDx=0;exitDy=0;entryX=0.5;entryY=1;entryDx=0;entryDy=0;fontFamily=Helvetica;fontSize=16;" parent="c-My_NbtffJbF_spMuTC-1" source="g2jBpEk-3GEPoV0dHoBr-26" target="g2jBpEk-3GEPoV0dHoBr-27" edge="1">
          <mxGeometry relative="1" as="geometry" />
        </mxCell>
        <mxCell id="g2jBpEk-3GEPoV0dHoBr-21" style="edgeStyle=orthogonalEdgeStyle;rounded=0;orthogonalLoop=1;jettySize=auto;html=1;exitX=0.5;exitY=0;exitDx=0;exitDy=0;entryX=0.5;entryY=1;entryDx=0;entryDy=0;fontFamily=Helvetica;fontSize=16;" parent="c-My_NbtffJbF_spMuTC-1" source="g2jBpEk-3GEPoV0dHoBr-26" target="g2jBpEk-3GEPoV0dHoBr-28" edge="1">
          <mxGeometry relative="1" as="geometry" />
        </mxCell>
        <mxCell id="g2jBpEk-3GEPoV0dHoBr-22" style="edgeStyle=orthogonalEdgeStyle;rounded=0;orthogonalLoop=1;jettySize=auto;html=1;exitX=1;exitY=0;exitDx=0;exitDy=0;entryX=0.5;entryY=1;entryDx=0;entryDy=0;fontFamily=Helvetica;fontSize=16;" parent="c-My_NbtffJbF_spMuTC-1" source="g2jBpEk-3GEPoV0dHoBr-26" target="g2jBpEk-3GEPoV0dHoBr-29" edge="1">
          <mxGeometry relative="1" as="geometry" />
        </mxCell>
        <mxCell id="g2jBpEk-3GEPoV0dHoBr-23" style="edgeStyle=orthogonalEdgeStyle;rounded=0;orthogonalLoop=1;jettySize=auto;html=1;exitX=0;exitY=1;exitDx=0;exitDy=0;entryX=0.5;entryY=0;entryDx=0;entryDy=0;fontFamily=Helvetica;fontSize=16;" parent="c-My_NbtffJbF_spMuTC-1" source="g2jBpEk-3GEPoV0dHoBr-26" target="g2jBpEk-3GEPoV0dHoBr-31" edge="1">
          <mxGeometry relative="1" as="geometry" />
        </mxCell>
        <mxCell id="g2jBpEk-3GEPoV0dHoBr-24" style="edgeStyle=orthogonalEdgeStyle;rounded=0;orthogonalLoop=1;jettySize=auto;html=1;exitX=0.5;exitY=1;exitDx=0;exitDy=0;entryX=0.5;entryY=0;entryDx=0;entryDy=0;fontFamily=Helvetica;fontSize=16;" parent="c-My_NbtffJbF_spMuTC-1" source="g2jBpEk-3GEPoV0dHoBr-26" edge="1">
          <mxGeometry relative="1" as="geometry">
            <mxPoint x="-370.77" y="2290" as="targetPoint" />
          </mxGeometry>
        </mxCell>
        <mxCell id="g2jBpEk-3GEPoV0dHoBr-25" style="edgeStyle=orthogonalEdgeStyle;rounded=0;orthogonalLoop=1;jettySize=auto;html=1;exitX=1;exitY=1;exitDx=0;exitDy=0;entryX=0.5;entryY=0;entryDx=0;entryDy=0;fontFamily=Helvetica;fontSize=16;" parent="c-My_NbtffJbF_spMuTC-1" source="g2jBpEk-3GEPoV0dHoBr-26" target="g2jBpEk-3GEPoV0dHoBr-33" edge="1">
          <mxGeometry relative="1" as="geometry" />
        </mxCell>
        <mxCell id="g2jBpEk-3GEPoV0dHoBr-26" value="&lt;b&gt;Redes sociales&lt;/b&gt;" style="ellipse;whiteSpace=wrap;html=1;fontFamily=Helvetica;fontSize=18;fillColor=#fff2cc;gradientColor=#ffd966;strokeColor=#d6b656;" parent="c-My_NbtffJbF_spMuTC-1" vertex="1">
          <mxGeometry x="-430.77" y="2130" width="120" height="80" as="geometry" />
        </mxCell>
        <mxCell id="g2jBpEk-3GEPoV0dHoBr-27" value="Instagram" style="ellipse;whiteSpace=wrap;html=1;fontFamily=Helvetica;fontSize=18;" parent="c-My_NbtffJbF_spMuTC-1" vertex="1">
          <mxGeometry x="-550.77" y="2050" width="100" height="50" as="geometry" />
        </mxCell>
        <mxCell id="g2jBpEk-3GEPoV0dHoBr-28" value="Facebook" style="ellipse;whiteSpace=wrap;html=1;fontFamily=Helvetica;fontSize=18;" parent="c-My_NbtffJbF_spMuTC-1" vertex="1">
          <mxGeometry x="-420.77" y="2030" width="100" height="50" as="geometry" />
        </mxCell>
        <mxCell id="g2jBpEk-3GEPoV0dHoBr-29" value="Twitter" style="ellipse;whiteSpace=wrap;html=1;fontFamily=Helvetica;fontSize=18;" parent="c-My_NbtffJbF_spMuTC-1" vertex="1">
          <mxGeometry x="-290.77" y="2045" width="100" height="50" as="geometry" />
        </mxCell>
        <mxCell id="g2jBpEk-3GEPoV0dHoBr-30" value="Youtube" style="ellipse;whiteSpace=wrap;html=1;fontFamily=Helvetica;fontSize=18;" parent="c-My_NbtffJbF_spMuTC-1" vertex="1">
          <mxGeometry x="-190.76999999999998" y="2145" width="100" height="50" as="geometry" />
        </mxCell>
        <mxCell id="g2jBpEk-3GEPoV0dHoBr-31" value="Twitch" style="ellipse;whiteSpace=wrap;html=1;fontFamily=Helvetica;fontSize=18;" parent="c-My_NbtffJbF_spMuTC-1" vertex="1">
          <mxGeometry x="-550.77" y="2230" width="100" height="50" as="geometry" />
        </mxCell>
        <mxCell id="g2jBpEk-3GEPoV0dHoBr-32" value="Discord" style="ellipse;whiteSpace=wrap;html=1;fontFamily=Helvetica;fontSize=18;" parent="c-My_NbtffJbF_spMuTC-1" vertex="1">
          <mxGeometry x="-420.77" y="2290" width="100" height="50" as="geometry" />
        </mxCell>
        <mxCell id="g2jBpEk-3GEPoV0dHoBr-33" value="TikTok" style="ellipse;whiteSpace=wrap;html=1;fontFamily=Helvetica;fontSize=18;" parent="c-My_NbtffJbF_spMuTC-1" vertex="1">
          <mxGeometry x="-290.77" y="2240" width="100" height="50" as="geometry" />
        </mxCell>
        <mxCell id="g2jBpEk-3GEPoV0dHoBr-34" style="edgeStyle=orthogonalEdgeStyle;rounded=0;orthogonalLoop=1;jettySize=auto;html=1;exitX=0.5;exitY=1;exitDx=0;exitDy=0;fontFamily=Helvetica;fontSize=16;" parent="c-My_NbtffJbF_spMuTC-1" edge="1">
          <mxGeometry relative="1" as="geometry">
            <mxPoint x="-140.76999999999998" y="2195" as="sourcePoint" />
            <mxPoint x="-140.76999999999998" y="2195" as="targetPoint" />
          </mxGeometry>
        </mxCell>
        <mxCell id="2AogQKv3Y3GuB-14GkWs-19" value="id" style="ellipse;whiteSpace=wrap;fontFamily=Helvetica;fontSize=16;fontStyle=1;fillColor=#dae8fc;strokeColor=#6c8ebf;" parent="c-My_NbtffJbF_spMuTC-1" vertex="1">
          <mxGeometry x="-1220" y="2090" width="40" height="35" as="geometry" />
        </mxCell>
        <mxCell id="g2jBpEk-3GEPoV0dHoBr-39" value="" style="edgeStyle=orthogonalEdgeStyle;shape=link;rounded=0;orthogonalLoop=1;jettySize=auto;html=1;exitX=0;exitY=0.5;exitDx=0;exitDy=0;entryX=0.5;entryY=0;entryDx=0;entryDy=0;endArrow=none;" parent="c-My_NbtffJbF_spMuTC-1" target="2AogQKv3Y3GuB-14GkWs-19" edge="1">
          <mxGeometry relative="1" as="geometry">
            <mxPoint x="-1020" y="2062.5" as="sourcePoint" />
            <mxPoint x="-1200" y="2140" as="targetPoint" />
          </mxGeometry>
        </mxCell>
        <mxCell id="QjysUjvfOG8rz5QFRjRF-3" style="edgeStyle=orthogonalEdgeStyle;shape=link;rounded=0;orthogonalLoop=1;jettySize=auto;html=1;exitX=0.5;exitY=0;exitDx=0;exitDy=0;" edge="1" parent="c-My_NbtffJbF_spMuTC-1" source="F6j6g9SN2grLB9rACUoZ-6">
          <mxGeometry relative="1" as="geometry">
            <mxPoint x="-794.6666666666665" y="2070" as="targetPoint" />
          </mxGeometry>
        </mxCell>
        <mxCell id="F6j6g9SN2grLB9rACUoZ-6" value="id" style="ellipse;whiteSpace=wrap;fontFamily=Helvetica;fontSize=16;fontStyle=1;fillColor=#dae8fc;strokeColor=#6c8ebf;" parent="c-My_NbtffJbF_spMuTC-1" vertex="1">
          <mxGeometry x="-815" y="2090" width="40" height="35" as="geometry" />
        </mxCell>
        <mxCell id="g2jBpEk-3GEPoV0dHoBr-41" value="id" style="ellipse;whiteSpace=wrap;fontFamily=Helvetica;fontSize=16;fontStyle=1;fillColor=#dae8fc;strokeColor=#6c8ebf;" parent="c-My_NbtffJbF_spMuTC-1" vertex="1">
          <mxGeometry x="-580.77" y="2152.5" width="40" height="35" as="geometry" />
        </mxCell>
        <mxCell id="gIDHHhIfixGZCMIbxY_w-10" value="N opciones" style="ellipse;whiteSpace=wrap;html=1;fontFamily=Helvetica;fontSize=18;" parent="c-My_NbtffJbF_spMuTC-1" vertex="1">
          <mxGeometry x="-820" y="1250" width="100" height="50" as="geometry" />
        </mxCell>
        <mxCell id="gIDHHhIfixGZCMIbxY_w-20" style="edgeStyle=orthogonalEdgeStyle;rounded=0;orthogonalLoop=1;jettySize=auto;html=1;exitX=1;exitY=0.5;exitDx=0;exitDy=0;shape=link;" parent="c-My_NbtffJbF_spMuTC-1" source="gIDHHhIfixGZCMIbxY_w-12" target="gIDHHhIfixGZCMIbxY_w-15" edge="1">
          <mxGeometry relative="1" as="geometry" />
        </mxCell>
        <mxCell id="gIDHHhIfixGZCMIbxY_w-12" value="id otras" style="ellipse;whiteSpace=wrap;html=1;fontFamily=Helvetica;fontSize=18;fillColor=#cce5ff;strokeColor=#36393d;" parent="c-My_NbtffJbF_spMuTC-1" vertex="1">
          <mxGeometry x="-815" y="1350" width="100" height="50" as="geometry" />
        </mxCell>
        <mxCell id="gIDHHhIfixGZCMIbxY_w-14" style="edgeStyle=orthogonalEdgeStyle;rounded=0;orthogonalLoop=1;jettySize=auto;html=1;exitX=1;exitY=0.5;exitDx=0;exitDy=0;entryX=0;entryY=0.5;entryDx=0;entryDy=0;fontFamily=Helvetica;fontSize=16;" parent="c-My_NbtffJbF_spMuTC-1" source="gIDHHhIfixGZCMIbxY_w-15" target="gIDHHhIfixGZCMIbxY_w-16" edge="1">
          <mxGeometry relative="1" as="geometry" />
        </mxCell>
        <mxCell id="gIDHHhIfixGZCMIbxY_w-15" value="&lt;b&gt;Contener&lt;/b&gt;" style="rhombus;whiteSpace=wrap;html=1;fontFamily=Helvetica;fontSize=18;fillColor=#b1ddf0;strokeColor=#10739e;" parent="c-My_NbtffJbF_spMuTC-1" vertex="1">
          <mxGeometry x="-640.77" y="1335" width="90" height="80" as="geometry" />
        </mxCell>
        <mxCell id="gIDHHhIfixGZCMIbxY_w-16" value="Lista de las capturadas por el usuario" style="ellipse;whiteSpace=wrap;html=1;fontFamily=Helvetica;fontSize=18;" parent="c-My_NbtffJbF_spMuTC-1" vertex="1">
          <mxGeometry x="-460.77" y="1335" width="160" height="80" as="geometry" />
        </mxCell>
        <mxCell id="gIDHHhIfixGZCMIbxY_w-22" value="id evento" style="ellipse;whiteSpace=wrap;fontFamily=Helvetica;fontSize=16;fontStyle=1;fillColor=#e6d0de;strokeColor=#996185;gradientColor=#d5739d;" parent="c-My_NbtffJbF_spMuTC-1" vertex="1">
          <mxGeometry x="-1707.5" y="1602.5" width="60" height="50" as="geometry" />
        </mxCell>
        <mxCell id="QjysUjvfOG8rz5QFRjRF-51" style="edgeStyle=orthogonalEdgeStyle;rounded=0;orthogonalLoop=1;jettySize=auto;html=1;exitX=0.5;exitY=1;exitDx=0;exitDy=0;entryX=0.5;entryY=0;entryDx=0;entryDy=0;shape=link;" edge="1" parent="c-My_NbtffJbF_spMuTC-1" source="gIDHHhIfixGZCMIbxY_w-25" target="QjysUjvfOG8rz5QFRjRF-13">
          <mxGeometry relative="1" as="geometry" />
        </mxCell>
        <mxCell id="gIDHHhIfixGZCMIbxY_w-25" value="id medio evento" style="ellipse;whiteSpace=wrap;fontFamily=Helvetica;fontSize=16;fontStyle=1;fillColor=#f8cecc;strokeColor=#b85450;" parent="c-My_NbtffJbF_spMuTC-1" vertex="1">
          <mxGeometry x="-1717.5" y="1705.63" width="70" height="56.25" as="geometry" />
        </mxCell>
        <mxCell id="QjysUjvfOG8rz5QFRjRF-52" style="edgeStyle=orthogonalEdgeStyle;shape=link;rounded=0;orthogonalLoop=1;jettySize=auto;html=1;exitX=0.5;exitY=1;exitDx=0;exitDy=0;entryX=0.5;entryY=0;entryDx=0;entryDy=0;" edge="1" parent="c-My_NbtffJbF_spMuTC-1" source="gIDHHhIfixGZCMIbxY_w-33" target="QjysUjvfOG8rz5QFRjRF-13">
          <mxGeometry relative="1" as="geometry" />
        </mxCell>
        <mxCell id="gIDHHhIfixGZCMIbxY_w-33" value="id motivo evento" style="ellipse;whiteSpace=wrap;fontFamily=Helvetica;fontSize=16;fontStyle=1;fillColor=#f8cecc;strokeColor=#b85450;" parent="c-My_NbtffJbF_spMuTC-1" vertex="1">
          <mxGeometry x="-1590" y="1705" width="75" height="57.5" as="geometry" />
        </mxCell>
        <mxCell id="dz397hYgZB1OtrOUyW_k-9" style="edgeStyle=orthogonalEdgeStyle;rounded=0;orthogonalLoop=1;jettySize=auto;html=1;exitX=0;exitY=0.5;exitDx=0;exitDy=0;" parent="c-My_NbtffJbF_spMuTC-1" source="dz397hYgZB1OtrOUyW_k-0" target="gIDHHhIfixGZCMIbxY_w-22" edge="1">
          <mxGeometry relative="1" as="geometry" />
        </mxCell>
        <mxCell id="dz397hYgZB1OtrOUyW_k-12" style="edgeStyle=orthogonalEdgeStyle;rounded=0;orthogonalLoop=1;jettySize=auto;html=1;exitX=0.5;exitY=1;exitDx=0;exitDy=0;entryX=0.5;entryY=0;entryDx=0;entryDy=0;" parent="c-My_NbtffJbF_spMuTC-1" source="dz397hYgZB1OtrOUyW_k-0" target="gIDHHhIfixGZCMIbxY_w-33" edge="1">
          <mxGeometry relative="1" as="geometry" />
        </mxCell>
        <mxCell id="QjysUjvfOG8rz5QFRjRF-14" style="edgeStyle=orthogonalEdgeStyle;rounded=0;orthogonalLoop=1;jettySize=auto;html=1;exitX=0;exitY=1;exitDx=0;exitDy=0;entryX=1;entryY=0.5;entryDx=0;entryDy=0;" edge="1" parent="c-My_NbtffJbF_spMuTC-1" source="dz397hYgZB1OtrOUyW_k-0" target="gIDHHhIfixGZCMIbxY_w-25">
          <mxGeometry relative="1" as="geometry" />
        </mxCell>
        <mxCell id="dz397hYgZB1OtrOUyW_k-0" value="&lt;b&gt;Inscribir&lt;/b&gt;" style="rhombus;whiteSpace=wrap;html=1;fontFamily=Helvetica;fontSize=18;fillColor=#b1ddf0;strokeColor=#10739e;" parent="c-My_NbtffJbF_spMuTC-1" vertex="1">
          <mxGeometry x="-1597.5" y="1587.5" width="90" height="80" as="geometry" />
        </mxCell>
        <mxCell id="QjysUjvfOG8rz5QFRjRF-26" style="edgeStyle=orthogonalEdgeStyle;shape=link;rounded=0;orthogonalLoop=1;jettySize=auto;html=1;exitX=0;exitY=0.5;exitDx=0;exitDy=0;entryX=0.5;entryY=0;entryDx=0;entryDy=0;" edge="1" parent="c-My_NbtffJbF_spMuTC-1" source="QjysUjvfOG8rz5QFRjRF-13" target="QjysUjvfOG8rz5QFRjRF-24">
          <mxGeometry relative="1" as="geometry" />
        </mxCell>
        <mxCell id="QjysUjvfOG8rz5QFRjRF-49" style="edgeStyle=orthogonalEdgeStyle;rounded=0;orthogonalLoop=1;jettySize=auto;html=1;exitX=1;exitY=0.5;exitDx=0;exitDy=0;entryX=0.5;entryY=0;entryDx=0;entryDy=0;shape=link;" edge="1" parent="c-My_NbtffJbF_spMuTC-1" source="QjysUjvfOG8rz5QFRjRF-13" target="QjysUjvfOG8rz5QFRjRF-42">
          <mxGeometry relative="1" as="geometry" />
        </mxCell>
        <mxCell id="QjysUjvfOG8rz5QFRjRF-13" value="&lt;b&gt;Tener&lt;/b&gt;" style="rhombus;whiteSpace=wrap;html=1;fontFamily=Helvetica;fontSize=18;fillColor=#b1ddf0;strokeColor=#10739e;" vertex="1" parent="c-My_NbtffJbF_spMuTC-1">
          <mxGeometry x="-1660" y="1890" width="90" height="80" as="geometry" />
        </mxCell>
        <mxCell id="QjysUjvfOG8rz5QFRjRF-18" value="N opciones" style="ellipse;whiteSpace=wrap;html=1;fontFamily=Helvetica;fontSize=18;" vertex="1" parent="c-My_NbtffJbF_spMuTC-1">
          <mxGeometry x="-1890" y="2060" width="100" height="50" as="geometry" />
        </mxCell>
        <mxCell id="QjysUjvfOG8rz5QFRjRF-28" style="edgeStyle=orthogonalEdgeStyle;shape=link;rounded=0;orthogonalLoop=1;jettySize=auto;html=1;exitX=0.5;exitY=1;exitDx=0;exitDy=0;entryX=0.5;entryY=0;entryDx=0;entryDy=0;" edge="1" parent="c-My_NbtffJbF_spMuTC-1" source="QjysUjvfOG8rz5QFRjRF-20" target="QjysUjvfOG8rz5QFRjRF-22">
          <mxGeometry relative="1" as="geometry" />
        </mxCell>
        <mxCell id="QjysUjvfOG8rz5QFRjRF-20" value="id otras" style="ellipse;whiteSpace=wrap;html=1;fontFamily=Helvetica;fontSize=18;fillColor=#cce5ff;strokeColor=#36393d;" vertex="1" parent="c-My_NbtffJbF_spMuTC-1">
          <mxGeometry x="-1780" y="2100" width="100" height="50" as="geometry" />
        </mxCell>
        <mxCell id="QjysUjvfOG8rz5QFRjRF-32" style="edgeStyle=orthogonalEdgeStyle;rounded=0;orthogonalLoop=1;jettySize=auto;html=1;exitX=0.5;exitY=1;exitDx=0;exitDy=0;entryX=0.5;entryY=0;entryDx=0;entryDy=0;" edge="1" parent="c-My_NbtffJbF_spMuTC-1" source="QjysUjvfOG8rz5QFRjRF-22" target="QjysUjvfOG8rz5QFRjRF-23">
          <mxGeometry relative="1" as="geometry" />
        </mxCell>
        <mxCell id="QjysUjvfOG8rz5QFRjRF-22" value="&lt;b&gt;Contener&lt;/b&gt;" style="rhombus;whiteSpace=wrap;html=1;fontFamily=Helvetica;fontSize=18;fillColor=#b1ddf0;strokeColor=#10739e;" vertex="1" parent="c-My_NbtffJbF_spMuTC-1">
          <mxGeometry x="-1775" y="2195" width="90" height="80" as="geometry" />
        </mxCell>
        <mxCell id="QjysUjvfOG8rz5QFRjRF-23" value="Lista de las capturadas por el usuario" style="ellipse;whiteSpace=wrap;html=1;fontFamily=Helvetica;fontSize=18;" vertex="1" parent="c-My_NbtffJbF_spMuTC-1">
          <mxGeometry x="-1810" y="2310" width="160" height="80" as="geometry" />
        </mxCell>
        <mxCell id="QjysUjvfOG8rz5QFRjRF-29" style="edgeStyle=orthogonalEdgeStyle;rounded=0;orthogonalLoop=1;jettySize=auto;html=1;exitX=0;exitY=0.5;exitDx=0;exitDy=0;entryX=1;entryY=0.5;entryDx=0;entryDy=0;" edge="1" parent="c-My_NbtffJbF_spMuTC-1" source="QjysUjvfOG8rz5QFRjRF-24" target="QjysUjvfOG8rz5QFRjRF-25">
          <mxGeometry relative="1" as="geometry" />
        </mxCell>
        <mxCell id="QjysUjvfOG8rz5QFRjRF-30" style="edgeStyle=orthogonalEdgeStyle;rounded=0;orthogonalLoop=1;jettySize=auto;html=1;exitX=0;exitY=1;exitDx=0;exitDy=0;entryX=0.5;entryY=0;entryDx=0;entryDy=0;" edge="1" parent="c-My_NbtffJbF_spMuTC-1" source="QjysUjvfOG8rz5QFRjRF-24" target="QjysUjvfOG8rz5QFRjRF-18">
          <mxGeometry relative="1" as="geometry">
            <Array as="points">
              <mxPoint x="-1758" y="2050" />
              <mxPoint x="-1840" y="2050" />
            </Array>
          </mxGeometry>
        </mxCell>
        <mxCell id="QjysUjvfOG8rz5QFRjRF-31" style="edgeStyle=orthogonalEdgeStyle;rounded=0;orthogonalLoop=1;jettySize=auto;html=1;exitX=0.5;exitY=1;exitDx=0;exitDy=0;entryX=0.5;entryY=0;entryDx=0;entryDy=0;" edge="1" parent="c-My_NbtffJbF_spMuTC-1" source="QjysUjvfOG8rz5QFRjRF-24" target="QjysUjvfOG8rz5QFRjRF-20">
          <mxGeometry relative="1" as="geometry" />
        </mxCell>
        <mxCell id="QjysUjvfOG8rz5QFRjRF-24" value="&lt;b&gt;Por quÃ© medio&lt;/b&gt;" style="ellipse;whiteSpace=wrap;html=1;fontFamily=Helvetica;fontSize=18;fillColor=#ffff88;strokeColor=#36393d;" vertex="1" parent="c-My_NbtffJbF_spMuTC-1">
          <mxGeometry x="-1770" y="1972.5" width="80" height="60" as="geometry" />
        </mxCell>
        <mxCell id="QjysUjvfOG8rz5QFRjRF-25" value="id" style="ellipse;whiteSpace=wrap;fontFamily=Helvetica;fontSize=16;fontStyle=1;fillColor=#f8cecc;strokeColor=#b85450;" vertex="1" parent="c-My_NbtffJbF_spMuTC-1">
          <mxGeometry x="-1850" y="1977.5" width="60" height="50" as="geometry" />
        </mxCell>
        <mxCell id="QjysUjvfOG8rz5QFRjRF-33" value="N opciones" style="ellipse;whiteSpace=wrap;html=1;fontFamily=Helvetica;fontSize=18;" vertex="1" parent="c-My_NbtffJbF_spMuTC-1">
          <mxGeometry x="-1460" y="2060" width="100" height="50" as="geometry" />
        </mxCell>
        <mxCell id="QjysUjvfOG8rz5QFRjRF-34" style="edgeStyle=orthogonalEdgeStyle;shape=link;rounded=0;orthogonalLoop=1;jettySize=auto;html=1;exitX=0.5;exitY=1;exitDx=0;exitDy=0;entryX=0.5;entryY=0;entryDx=0;entryDy=0;" edge="1" parent="c-My_NbtffJbF_spMuTC-1" source="QjysUjvfOG8rz5QFRjRF-35" target="QjysUjvfOG8rz5QFRjRF-37">
          <mxGeometry relative="1" as="geometry" />
        </mxCell>
        <mxCell id="QjysUjvfOG8rz5QFRjRF-35" value="id otras" style="ellipse;whiteSpace=wrap;html=1;fontFamily=Helvetica;fontSize=18;fillColor=#cce5ff;strokeColor=#36393d;" vertex="1" parent="c-My_NbtffJbF_spMuTC-1">
          <mxGeometry x="-1562.5" y="2100" width="100" height="50" as="geometry" />
        </mxCell>
        <mxCell id="QjysUjvfOG8rz5QFRjRF-36" style="edgeStyle=orthogonalEdgeStyle;rounded=0;orthogonalLoop=1;jettySize=auto;html=1;exitX=0.5;exitY=1;exitDx=0;exitDy=0;entryX=0.5;entryY=0;entryDx=0;entryDy=0;" edge="1" parent="c-My_NbtffJbF_spMuTC-1" source="QjysUjvfOG8rz5QFRjRF-37">
          <mxGeometry relative="1" as="geometry">
            <mxPoint x="-1512.5" y="2310" as="targetPoint" />
          </mxGeometry>
        </mxCell>
        <mxCell id="QjysUjvfOG8rz5QFRjRF-37" value="&lt;b&gt;Contener&lt;/b&gt;" style="rhombus;whiteSpace=wrap;html=1;fontFamily=Helvetica;fontSize=18;fillColor=#b1ddf0;strokeColor=#10739e;" vertex="1" parent="c-My_NbtffJbF_spMuTC-1">
          <mxGeometry x="-1557.5" y="2195" width="90" height="80" as="geometry" />
        </mxCell>
        <mxCell id="QjysUjvfOG8rz5QFRjRF-38" value="Lista de las capturadas por el usuario" style="ellipse;whiteSpace=wrap;html=1;fontFamily=Helvetica;fontSize=18;" vertex="1" parent="c-My_NbtffJbF_spMuTC-1">
          <mxGeometry x="-1590" y="2310" width="160" height="80" as="geometry" />
        </mxCell>
        <mxCell id="QjysUjvfOG8rz5QFRjRF-46" style="edgeStyle=orthogonalEdgeStyle;rounded=0;orthogonalLoop=1;jettySize=auto;html=1;exitX=1;exitY=1;exitDx=0;exitDy=0;" edge="1" parent="c-My_NbtffJbF_spMuTC-1" source="QjysUjvfOG8rz5QFRjRF-42">
          <mxGeometry relative="1" as="geometry">
            <mxPoint x="-1410" y="2060.505102572168" as="targetPoint" />
            <Array as="points">
              <mxPoint x="-1492" y="2024" />
              <mxPoint x="-1492" y="2050" />
              <mxPoint x="-1410" y="2050" />
            </Array>
          </mxGeometry>
        </mxCell>
        <mxCell id="QjysUjvfOG8rz5QFRjRF-48" style="edgeStyle=orthogonalEdgeStyle;rounded=0;orthogonalLoop=1;jettySize=auto;html=1;exitX=0.5;exitY=1;exitDx=0;exitDy=0;" edge="1" parent="c-My_NbtffJbF_spMuTC-1" source="QjysUjvfOG8rz5QFRjRF-42" target="QjysUjvfOG8rz5QFRjRF-35">
          <mxGeometry relative="1" as="geometry" />
        </mxCell>
        <mxCell id="QjysUjvfOG8rz5QFRjRF-50" style="edgeStyle=orthogonalEdgeStyle;rounded=0;orthogonalLoop=1;jettySize=auto;html=1;exitX=1;exitY=0.5;exitDx=0;exitDy=0;entryX=0;entryY=0.5;entryDx=0;entryDy=0;" edge="1" parent="c-My_NbtffJbF_spMuTC-1" source="QjysUjvfOG8rz5QFRjRF-42" target="QjysUjvfOG8rz5QFRjRF-44">
          <mxGeometry relative="1" as="geometry" />
        </mxCell>
        <mxCell id="QjysUjvfOG8rz5QFRjRF-42" value="&lt;b&gt;Por quÃ© medio&lt;/b&gt;" style="ellipse;whiteSpace=wrap;html=1;fontFamily=Helvetica;fontSize=18;fillColor=#ffff88;strokeColor=#36393d;" vertex="1" parent="c-My_NbtffJbF_spMuTC-1">
          <mxGeometry x="-1552.5" y="1972.5" width="80" height="60" as="geometry" />
        </mxCell>
        <mxCell id="QjysUjvfOG8rz5QFRjRF-44" value="id" style="ellipse;whiteSpace=wrap;fontFamily=Helvetica;fontSize=16;fontStyle=1;fillColor=#f8cecc;strokeColor=#b85450;" vertex="1" parent="c-My_NbtffJbF_spMuTC-1">
          <mxGeometry x="-1440" y="1977.5" width="60" height="50" as="geometry" />
        </mxCell>
      </root>
    </mxGraphModel>
  </diagram>
</mxfile>
